/* XPM */
static char *collectible[] = {
/* columns rows colors chars-per-pixel */
"64 64 89 1 ",
"  c #4A3C55",
". c #4A3C56",
"X c #4C3E58",
"o c #4F415C",
"O c #51435E",
"+ c #52465E",
"@ c #534460",
"# c #564764",
"$ c #584966",
"% c #594A68",
"& c #5B5067",
"* c #635A70",
"= c #6C6579",
"- c #33A5D7",
"; c #33A6D8",
": c #3DA8D8",
"> c #34ADE2",
", c #34B2E9",
"< c #35B6EF",
"1 c #36BBF5",
"2 c #3FBDF4",
"3 c #47ACD9",
"4 c #51B0DA",
"5 c #5BB4DB",
"6 c #65B7DC",
"7 c #6FBBDD",
"8 c #79BFDE",
"9 c #49BFF3",
"0 c #53C2F2",
"q c #5DC4F1",
"w c #70C9EF",
"e c #7ACBEE",
"r c #67C6F0",
"t c #9798A7",
"y c #9FA3B0",
"u c #9BB9C4",
"i c #9BB8C5",
"p c #9CB9C5",
"a c #9DBAC4",
"s c #9EBBC7",
"d c #A1BDC9",
"f c #A4BFCB",
"g c #B0B7C2",
"h c #83C3DF",
"j c #A7C2CD",
"k c #ABC4CF",
"l c #B9C2CB",
"z c #AEC6D1",
"x c #B1C9D3",
"c c #B5CBD5",
"v c #B8CED7",
"b c #BBD0D9",
"n c #BFD2DB",
"m c #8DC6E0",
"M c #84CEEE",
"N c #97CAE1",
"B c #8ED0ED",
"V c #98D2EC",
"C c #ABD2E3",
"Z c #ABD7EA",
"A c #B5D5E4",
"S c #BFD9E5",
"D c #B5D9E9",
"F c #BFDCE8",
"G c #C2D5DD",
"H c #C5D7DF",
"J c #CAD6DD",
"K c #C9D9E1",
"L c #CCDCE3",
"P c #C9DDE6",
"I c #C9DEE7",
"U c #CFDEE5",
"Y c #D3E1E7",
"T c #D4E2E7",
"R c #D6E3E8",
"E c #D8E4E9",
"W c #DAE5EA",
"Q c #DBE6EB",
"! c #DDE8EC",
"~ c #DFE9ED",
"^ c #E1EAEE",
"/ c #E2EBEE",
"( c #E4ECEF",
") c #E6EEF0",
"_ c #E8EFF1",
"` c #E9F0F2",
"' c #EDF2F4",
"] c #EFF4F5",
"[ c None",
/* pixels */
"[[[[[[[[[[[[[[[[[[[[[[[[[[[[[[[[[[[[[[[[[[[[[[[[[[[[[[[[[[[[[[[[",
"[[[[[[[[[[[[[[[[[[[[[[[[[[[[[[[[[[[[[[[[[[[[[[[[[[[[[[[[[[[[[[[[",
"[[[[[[[[[[[[[[[[[[[[[[[[[[[[usussuus[[[[[[[[[[[[[[[[[[[[[[[[[[[[",
"[[[[[[[[[[[[[[[[[[[[[[sssssjcvvvvvvcjssssu[[[[[[[[[[[[[[[[[[[[[[",
"[[[[[[[[[[[[[[[[[[[[ussscnYYYYYYYYYYYYncsssu[[[[[[[[[[[[[[[[[[[[",
"[[[[[[[[[[[[[[[[[ussvKYYYYYYYYYYYYYYYYYYYYKvss[[[[[[[[[[[[[[[[[[",
"[[[[[[[[[[[[[[[[[sjGYYYYYYYYYYYYYYYYYYYYYYYYbfs[[[[[[[[[[[[[[[[[",
"[[[[[[[[[[[[[[[ssYYYYYYYYYYYYYzssvYYYYYYYYYYYYUss[[[[[[[[[[[[[[[",
"[[[[[[[[[[[[[usjHYYYYYYYYYYYYYvssnYYYYYYYYYYYYYGfsu[[[[[[[[[[[[[",
"[[[[[[[[[[[[sdGYYYYYYYYYYYYYYYYYYYYYYYYYYYYYYTYYUvss[[[[[[[[[[[[",
"[[[[[[[[[[[usKYYYYQ]`YYYYYYYYYYYYYYYYYYYYYT)'TYYYYGss[[[[[[[[[[[",
"[[[[[[[[[[sfUYYYYY`]]QYYYYYYYYYYYYYYYYYYYY~]])YYYYYKsu[[[[[[[[[[",
"[[[[[[[[[ssKYYYYYY!_^YYYYYYYChhhMMMZYYYYYYT)_QYYYYYYnsi[[[[[[[[[",
"[[[[[[[[[sGYYYYYYYYYTYYY5-------1111111qYYYYYYYYYYYYYcs[[[[[[[[[",
"[[[[[[[[sbYYYYYYYYYYYYh:--------111111119MYYYYYYYYYYYYxu[[[[[[[[",
"[[[[[[[sfYYYYYYYYYYY4-----------11111111111wYYYYYYYYYYYfs[[[[[[[",
"[[[[[[[sGYYYYYYYYYYN------------111111111111DYYYYYYYYYYbs[[[[[[[",
"[[[[[[sUYYYYYYYYYY-----------:55qq211111111111YYYYYYYYYYKs[[[[[[",
"[[[[[sfYYYHkHYYYY1>-----:4YYYYYYYYYYUI0111111>:YYYYKkvYYYfs[[[[[",
"[[[[[snYYYsskYYYD11>----hYYYYYYYYYYYYUPB1111>--PYYYjsfYYYvs[[[[[",
"[[[[uvYYYUjscYYw1111>-hYYYJt    .   tYYYPr1,----hYYzsxYYYTcu[[[[",
"[[[[sLYYYYUHYYY111111>YYYJ+     .    +YYYY,;-----YYUHYYYYTKs[[[[",
"[[[ssYYYYYYYYYM11111wYYY                YYY6-----NYYYYYYYYYss[[[",
"[[[ssYYYYYYYYY911111PYYt                gYYP-----3PYYYYYYYYss[[[",
"[[[svYYYYYYYY911111MYY+            .%%%o *YY7-----3YYYYYYYYcs[[[",
"[[[sHYYYYYYYY111119YYY             @%%%%  YYS------YYYYYYYYHs[[[",
"[[[fYYYYYYYYY11111YYJ+            O%%%%%O =YYS-----YYYYYYYYYf[[[",
"[[[kYYYYYYYYY11111YYy             O%%%%%O  lYY-----YYYYYYYYYk[[[",
"[[uvYYYYYYYYB11111YY               @%%%%   &YY-----hYYYYYYYYvu[[",
"[[sGYYYYYYYYM11110YY               o%%%#    YY----:hYYYYYYYYGs[[",
"[[sHYYY^!YYYq1111MYY                        YY5----5YYY^~YYYHs[[",
"[[sHYYT]]YYYq1111MYY                        YY5----5YYY]]YYYHs[[",
"[[sHYYT']YYY5----hYY                        YYq1111qYYY]]YYYKs[[",
"[[sHYYT^!YYY5----hYY                        YYq1111qYYY~~YYYGs[[",
"[[uvYYYYTTYYh----4YY                        YY11111MYYYYYYYYvu[[",
"[[svYYYYYYYYN-----YU                       &YY11111VYYYYYYYYvs[[",
"[[[kYYYYYYYYY-----YYto                     lYY11111YYYYYYYYYk[[[",
"[[[fYYYYYYYYY-----YYJo                    =YYD11111YYYYYYYYYf[[[",
"[[[sGYYYYYYYY-----3YYY                    YYS111111YYYYYYYYGs[[[",
"[[[scYYYYYYYY3---;;hYY                   &YYr111110YYYYYYYYcs[[[",
"[[[ssYYYYYYYYP:-----TTTg...             lYYF111119YYYYYYYYYss[[[",
"[[[ssYYYYYYYYYh-----7TTT*...           *YYI011111VYYYYYYYYYss[[[",
"[[[[sLYYYYLHLYY------,PYYY*.         *YYYI<111111YYUHYYYYYLs[[[[",
"[[[[scYYTTksxYY6----,10PYYYg        gYYYI4;<1111MYYksvYYYYxu[[[[",
"[[[[[svYYPsskYYYA--,1111wIYYYYYYYYYYYYS8----,11IYYYfsfUYYvs[[[[[",
"[[[[[sfYYYHkJYYYY-,1111111FYYYYYYYYYYS:------,2YYYYHkGYYYfs[[[[[",
"[[[[[usUYYYYYYYYYY211111111112qq55:----------4YYYYYYYYYYKs[[[[[[",
"[[[[[[[sGYYYYYYYYYYD111111111111;;----------IYYYYYYYYYYvs[[[[[[[",
"[[[[[[[sfYYYYYYYYYYYe11111111111-----------8YYYYYYYYYYYds[[[[[[[",
"[[[[[[[[svYYYYYYYYYYYYe011111111--------3mYYYYYYYYYYYYzs[[[[[[[[",
"[[[[[[[[usnYYYYYYYTTYYYP01111111-------3PYTTYYYYYYYYYcs[[[[[[[[[",
"[[[[[[[[[usKYYYYYYR(^YYYUYYFeqqq5558SYYYYYT^)QYYYYYYnsu[[[[[[[[[",
"[[[[[[[[[[ifnYYYYY(]'QYYYYYYYYYYYYYYYYYYYY^]](YYYYTcss[[[[[[[[[[",
"[[[[[[[[[[[usnYYYY(](YYYYYYYYYYYYYYYYYYYYYT)]QYYYYxs[[[[[[[[[[[[",
"[[[[[[[[[[[[isvYYYYYYYYYYYYYYYYYYYYYYYYYYYYYYYYYYks[[[[[[[[[[[[[",
"[[[[[[[[[[[[[[sfHYYYYYYYYYYYYYzssvYYYYYYYYYYYYYbss[[[[[[[[[[[[[[",
"[[[[[[[[[[[[[[[ssUYYYYYYYYYYYYvssnYYYYYYYYYYYYKss[[[[[[[[[[[[[[[",
"[[[[[[[[[[[[[[[[[sfnYYYYYYYYYYYYYYYYYYYYYYYYvfs[[[[[[[[[[[[[[[[[",
"[[[[[[[[[[[[[[[[[ussvKTYYYYYYYYYYYYYYYYYYYLxss[[[[[[[[[[[[[[[[[[",
"[[[[[[[[[[[[[[[[[[[[sssfbKYYYYYYYYYYYRKvsssu[[[[[[[[[[[[[[[[[[[[",
"[[[[[[[[[[[[[[[[[[[[[[sssskvHHHHHHHHvkssss[[[[[[[[[[[[[[[[[[[[[[",
"[[[[[[[[[[[[[[[[[[[[[[[[[[[ssssssssss[[[[[[[[[[[[[[[[[[[[[[[[[[[",
"[[[[[[[[[[[[[[[[[[[[[[[[[[[[[[[[[[[[[[[[[[[[[[[[[[[[[[[[[[[[[[[[",
"[[[[[[[[[[[[[[[[[[[[[[[[[[[[[[[[[[[[[[[[[[[[[[[[[[[[[[[[[[[[[[[["
};
