/* XPM */
static char *gate[] = {
/* columns rows colors chars-per-pixel */
"52 64 245 2 ",
"   c #0F0710",
".  c #280C2B",
"X  c #2A0C32",
"o  c #260E31",
"O  c #2C1339",
"+  c #331434",
"@  c #351A3A",
"#  c #3B1C3B",
"$  c #371737",
"%  c #2F112E",
"&  c #352A36",
"*  c #1F0C2C",
"=  c #411B3E",
"-  c #42233F",
";  c #2D1945",
":  c #361D47",
">  c #331F52",
",  c #3A244A",
"<  c #342352",
"1  c #392958",
"2  c #3B345A",
"3  c #2C2B51",
"4  c #3A2C65",
"5  c #3B3568",
"6  c #3C3875",
"7  c #2D3B6B",
"8  c #431E42",
"9  c #481F46",
"0  c #442444",
"q  c #4A2345",
"w  c #44244B",
"e  c #4B244B",
"r  c #442A4C",
"t  c #4C2B4D",
"y  c #472B45",
"u  c #522C4C",
"i  c #53274C",
"p  c #4C344C",
"a  c #52344D",
"s  c #432B53",
"d  c #4B2D53",
"f  c #492A55",
"g  c #542C52",
"h  c #592D54",
"j  c #4C355C",
"k  c #493357",
"l  c #533354",
"z  c #5B3354",
"x  c #54355B",
"c  c #5C335A",
"v  c #5C3B5C",
"b  c #573B58",
"n  c #633C5A",
"m  c #63375A",
"M  c #602F53",
"N  c #453A66",
"B  c #5C3C61",
"V  c #543C65",
"C  c #423D75",
"Z  c #402C60",
"A  c #643D62",
"S  c #693963",
"D  c #713E66",
"F  c #3B446E",
"G  c #3A4676",
"H  c #3D547A",
"J  c #5B435D",
"K  c #5B545C",
"L  c #64445D",
"P  c #49436B",
"I  c #594468",
"U  c #484976",
"Y  c #584B74",
"T  c #4A537B",
"R  c #58547A",
"E  c #644364",
"W  c #6C4462",
"Q  c #654A65",
"!  c #634B6C",
"~  c #6B4B6C",
"^  c #684767",
"/  c #744C6B",
"(  c #744867",
")  c #6D536C",
"_  c #685568",
"`  c #74526C",
"'  c #77566D",
"]  c #684D73",
"[  c #6A5777",
"{  c #745574",
"}  c #7B5472",
"|  c #745A73",
" . c #7B5B73",
".. c #7C5C7A",
"X. c #755C7A",
"o. c #7B4F72",
"O. c #7B637B",
"+. c #796579",
"@. c #6B6477",
"#. c #835B77",
"$. c #80526F",
"%. c #84637C",
"&. c #856B7D",
"*. c #8B667C",
"=. c #3E3F81",
"-. c #3C508F",
";. c #3C6C94",
":. c #3C59A1",
">. c #3B66AA",
",. c #3B78B9",
"<. c #3775B2",
"1. c #444785",
"2. c #475784",
"3. c #585A85",
"4. c #44579C",
"5. c #424F95",
"6. c #6D5D82",
"7. c #56668B",
"8. c #566A95",
"9. c #4B779A",
"0. c #577598",
"q. c #486790",
"w. c #6A6788",
"e. c #796985",
"r. c #78738A",
"t. c #667799",
"y. c #777A95",
"u. c #656B93",
"i. c #435BA2",
"p. c #4665A9",
"a. c #577BA4",
"s. c #446BB1",
"d. c #4876B8",
"f. c #4D76AE",
"g. c #697CA3",
"h. c #3B7FC1",
"j. c #417FC1",
"k. c #846C82",
"l. c #8C6C83",
"z. c #866884",
"x. c #926E83",
"c. c #8A7285",
"v. c #8C758A",
"b. c #8C7B8C",
"n. c #847489",
"m. c #94758A",
"M. c #947B8D",
"N. c #9B7B8D",
"B. c #977488",
"V. c #887A93",
"C. c #977D92",
"Z. c #A27D8E",
"A. c #3B82B2",
"S. c #7B8299",
"D. c #5686A8",
"F. c #4A96B8",
"G. c #538AB1",
"H. c #6886A9",
"J. c #7889A7",
"K. c #7693AB",
"L. c #668BB4",
"P. c #738EB1",
"I. c #6997B6",
"U. c #7496B6",
"Y. c #6791AC",
"T. c #56A2B9",
"R. c #78A2BB",
"E. c #3B88C4",
"W. c #3B98CB",
"Q. c #2E86C1",
"!. c #3CADD7",
"~. c #3CBAE0",
"^. c #4689C5",
"/. c #4596CB",
"(. c #469CD1",
"). c #5590C8",
"_. c #49A7D4",
"`. c #4BB8DB",
"'. c #55B7DB",
"]. c #54ABCD",
"[. c #7BB2C9",
"{. c #66B9D7",
"}. c #73AFCB",
"|. c #51BDE0",
" X c #63BFE2",
".X c #3DCFE7",
"XX c #56C1DE",
"oX c #66C2DF",
"OX c #79C8DD",
"+X c #47C6E2",
"@X c #59C6E2",
"#X c #5AD2E6",
"$X c #4BD3E8",
"%X c #68CAE3",
"&X c #68D6E8",
"*X c #75D7E9",
"=X c #79CBE4",
"-X c #78E5EF",
";X c #97828E",
":X c #878498",
">X c #958292",
",X c #9B8192",
"<X c #9A8A94",
"1X c #998A99",
"2X c #998B95",
"3X c #A38392",
"4X c #A28C9A",
"5X c #A58B98",
"6X c #A6939D",
"7X c #8A98AA",
"8X c #9499A8",
"9X c #8893AA",
"0X c #A898A3",
"qX c #B29BA4",
"wX c #97A2AE",
"eX c #87A5B7",
"rX c #96A8B5",
"tX c #9DB0BC",
"yX c #A9A4AD",
"uX c #ACABB4",
"iX c #99B9C4",
"pX c #8BB7CA",
"aX c #A0B7C2",
"sX c #89C8D5",
"dX c #92CBD8",
"fX c #8CD3D8",
"gX c #A4C7D5",
"hX c #87DAE9",
"jX c #97DAE8",
"kX c #87E4EE",
"lX c #89E9F1",
"zX c #97EBF1",
"xX c #99EDF2",
"cX c #A8EDF2",
"vX c #A7F3F5",
"bX c #B3F4F5",
"nX c #BAF7F7",
"mX c #B1EBF2",
"MX c #C9F6F7",
"NX c #D9FAF9",
"BX c #E7FCF9",
"VX c #F6FCF9",
"CX c #F8FCF9",
"ZX c #D4C5C4",
"AX c #CBBAB8",
/* pixels */
"  & K 2X2X2X;X2X2X2X6X<X6X+.@.8X8X@.O.b._ ;XZXqXD.J.pXS.).V.AX5X_ +.;X+.c.8X+.+.5X<X5X5X2X6X6X8X4XK %   ",
", 2X0X6X2X;X;X;X;X;X;X;X<X) _ +.+.I Q _ _ >XZX6XH.S.uX:XY.>XAX6X_ L  .Q ) c.@.+.;X;X;X;X;X;X2X2X<X<Xn.& ",
";X0X&.J j N p - & u b n L a J Q | l v ` b c.uXB.c.>X>Xb.b.n.6X;XJ u W M W } J J L n z y - p J P J @.;X&.",
";X+.p F D.<.P , 8 - ( ' W u L ` ` n L z t | *.W j 8.0.9.2.v #.` a - n m W ` L a ( / t w - I ;.A.-.J &.&.",
";X@.k F.bXlXf.l 0 0 - a m n ( ` ` ` ( n r ` #.] F.zXMXbXOXY } ( t q ( ` ` ` / z z y d w , 9.lXnXF.P +.#.",
";X+.P ].NXnXL.Y V q = ' 5X3X;X3XC.>XC.n.Q ( 6.] F.-XzXzX{.T ~ W l X.,X<X4X4X1X4X .@ 0 V C g.MXBX'.2 +.%.",
";X+.b 9.XX[.U.}.9.t  .qX&. . .' { | X.] j E { E Y 8.0.8.2.I E c t ^ |  .+.O...%.B.' 0 q.].I.pX%XD.I | %.",
">X+., j R u.dXMXD.v.qX&.p + + # @ @ @ @ @ g D / %.l.c.n.&.) / h @ + $ + @ @ @ w } N.*.9.bXjX8.R P y +.O.",
"M.O.0 = u T ].}.:XqXk.p . * . . % + % % . 8 B { ..O.O.+...{ A w . . % + % . o * 0 O.5X1XR.].T u t u | O.",
">XO.r e 8 a P :XyXv.x . X 1 @ @ c h h 8 i + @ s w s d s s , : X # # i 9 y . : , . t e.1XV.R p q t y +.&.",
">Xk.a u e = &.6Xz.j < F , @ - ) 6.z.W ( g X . O 7 H 8.q.H ; o . g h c #.' L + y U 5 h X.>Xx.0 q c u O.%.",
">Xe.n n y &.0Xk.d O 9.hXT u O.X.N.%.*.I ; O X O A.[.sX[.W.3 o O : D D z.B.) L F OXT., w  .N.m.a c m %.%.",
"1XO.~ W +.;X%.p * O 2.F.R R w. . .x.~ > < < , N T q.0.8.3.U 2 ; ; w  .} W  .] [ D.q.: o y ` Z. .n ( *.*.",
"b.c.' W c.m.J o ; , + J t.sXT.` z.{ : < 2 2 ; 3 , 2 2 2 1 1 < 2 4 > r ..#.! ].Y.! + , 5 , a B.' W $.l. .",
";Xc.` o.&.N.J + 2 1 u ( T.bXY.l. .@ ; 2 6 ; X X X X . . X + X > C < X , ....[.fXR W 0 U r p N.) W $.v.%.",
"<X&.( ` c.<XJ O , b ' ..w.Y.V.X.@ + < F ; o X d : O O X ; ; X w 2 6 ; , , #.e.0.r.' L r r J ;X' / #.c.x.",
"v.+.o.$.&.;XL . , L *.%.#.C.u.2.T r k O o : @ I w ; ; ; > ; ; > , 2 5 Z G T z.x.` | } v @ J 3X .$.#.x.%.",
">X*.o.$.&.3XJ % u  .v.` #.[ T pXH.U : X 1 P 5 > > > ; > C > > > 3.1 2 2.D.[.U X./ { l.D u a 3X .$.#.l.*.",
">X%.( $.&.;XL + x ..` ..I ; G.I.q.2 O , > > < 4 Z > Z Z C =.=.C 4 ; ; N 0.}.9., { } / } z L ;X .( ' k.#.",
"N.%.W ( &.M.Q @ x W ..N 1 , T 7.2 O ; 1 1 4 4 5 =.4.4.p.5.5.C 6 4 1 > > T 0.P < f 6.o.W l Q ,X' D / k.m.",
"] l./ M &.M.^ % e / V 4 C C 3.Z : > > C C C 1.p.d.d.d.d.i.4.5.g.6 5 C C N C U 6 6 2 { S 8 I N.' u ' ;X..",
"# ( x./ O.M.^ + e w > 6 2.U s Z > C C 1.i.p.d.s.s.d.j.j.,.>.:.i.p.-.1.C C > 5 1.G 6 s h q v B.L L N.` y ",
"0 a W k.k.k.E @ e 8 4 -.U : > > 4 4 i.).j.).j.^./.E.h.j.E.^.E.>.i.5.4.4.=.4 4 N 2.U s e u L k.&.B._ y z ",
"% e $ E x. .v O 8 e U N > > > 4 1.C i.).{.)./.^.^.^.(.'.'.|.(.,.>.:.:.:.i.C 4 < 5 2.V w 0 # &.,X~ $ # W ",
"- n $ # n c.L $ e d 3.P V Z 4 C 3.=.s.(.]./._.]._.`.!.W.W.W.W.Q.h.E.^.d.s.d.C 4 N w.V d e t 1X) # + g ~ ",
"_ _ = = + n O.0 e g w.T Z 4 C 4 6 i./.E.W.].(.W.!.`.@X*X-X*X`.W.Q.h././.:.-.6 4 C t.Y d d @.) # $ = A ~ ",
"e.| e d 0 v | 0 w x w.P 4 6 =.1.:.>.E.W._.W.'.kXxXbXbXlX&X@X+X#X|.W.Q.W.).5.=.6 N t.Y B g w.Q % w e } o.",
"C.c.x Y V O.O., t x u.N C g.g.i.:.h.W.!._.+XxXMXcX-X$X.X.X+X+X+X@X@XW.E.(.^.5.5.1.t.R x x r.| r I v l.#.",
">Xb.Y a.3.e.k.s , s 7.P 5 8.f.i.>.E._._.+X&XbX*X$X$X-X-XzXxXlXlX%X@X!.W.,./.i.-.U 8.P , x r.+.P f.[ m.z.",
"V.M.3.&XL.k.r.N -.D.8.P 6 6 i.d.h._.W.`.$XlX-X#XkXnXNXMXnXnXvX-X-X&X`.`.W.d.).4.C 8.q.9.P S.e.q.#X0.M.*.",
"e.v.0.bXR.z.y.6 Y.dX0.U 6 =.p.d./.'.W.&X&X-X&XvXbXnXnXvXvXxXbXvX-XlX%X`.%X].XX).-.u.Y.dXU :Xe.t.mXU.V.#.",
"e.v.a.MXpXe.r.G I.gXH.U =.i.p.>._.'.`.lX&X-XxXvXMXBXBXBXNXnXxXvXlXlXkX`.'.].XX'.p.t.Y.dXY S.e.t.MXeXV.z.",
"e.n.0.cXU.e.r.F L.dXg.Y p.L.d.s.{.`.XXzX-XkXnXNXVXCXCXVXVXBXMXbXxX-XxX|.!.W.(.'.,.t.I.dXU r.@.0.cXK.b.%.",
"e.O.T *XY.X.e.2 ;.F.t.1.i.d.d.p.{.oX+XzXzXzXBXVXVXCXVXCXCXVXVXMXvXvXbX@X!.!./._.d.t.9.F.P r.) q.&Xu.e.z.",
"e...P /.8...e.k > N y.5.p.d.).s.[.*X#X*XbXbXVXVXCXVXVXVXCXCXCXBXnXxXMX#X~.'.E._.<.t.3.2 N r.{ U /.] ..#.",
"X.| d ] B { O.s 9 x y.5.p.d.).d.{.kX&XXXMXBXVXVXCXCXCXCXCXCXCXVXMX-XnX-X`. X^._.>.g.R k x +.) r R l { } ",
"! E e l u L { r e B g.1.i.p.s.,./.hX&X+XcXVXVXVXCXCXCXCXCXCXCXBXNXlXbX*X#X X(.(.<.g.w.j t +.L % n t L / ",
"y / q q u #.z @ e B u.2.i.i.i.>.E. X&X~.&XNXVXVXVXCXCXCXCXCXCXVXNXlXvX&X-X X{.(.d.g.[ j w y } - q u $.L ",
"  t q z z n + : 9 c w.7.5.4.:.p.<.(.*X+X&XbXVXCXCXCXCXCXCXCXCXCXNXlXcX%XkX].'.h.s.t.R e e : z z z a z   ",
"J ' &.a # w ] 6.g f ] y.g.5.-.d.d.W.%X*XkXkXMXCXCXCXCXCXCXCXCXBXcXzXhX@X XE.E.>.I.g.V f e.r.k % y  .' _ ",
"+.m.,X>X~ B X.V.e.s k w.y.g.5.i.j.(.|.=X*X-XkXMXVXCXCXVXCXCXNXnXvXcX'.@X/.,.,.H.P.Y V r.8Xr.V E 5X6XN.C.",
"= - B N.4X_ B [ X.N : V w.J.H.i.s.).'. X-X*X&XzXMXBXBXBXNXmXvXMXcX%X&XXX,.d.I.P.w.: V V.[ V ~ 0X3X! g l ",
"= 0 l ! m.>XV j A x k s f 3.P.H.i.d.).(. XhXzXmXcXcXzXzXlXlXlX%X+X%X'.^.p.L.P.3.l l ! ) k l 4X,X{ r # # ",
"L ~ ] s B *.[ w c ^ n.V 5 4.8.H.g.i.d.^.`.@X*XhXlXxXbXbXcXhX*X%X%X_./.j.L.P.u.N j +.z.E l _ c.I , b ~ o.",
"J J 8.F.N ~ E , e c c.V.H.{.2.Y u.g.i.^._.|.|.*X*XzXmXbXcXhX=X'._._.).L.g.8.8.}.S.>XE e t E Q k A.2.I / ",
"c k }.bX2.~ V 0 c V E v.9XI.F f R P.P.i.s.).(.(.'.oX=X%X%X'.(._./.E.L.P.1.N 9.eX1X) c E t E E F cXsXP W ",
"l k 2.D.N ~ b 8 c [ ] ! l.:X] 1 Z 3.g.g.p.p.d.^./.W.E.^.E.E.A.E.<.L.P.w.V Y y.>X~ c { ~ t n I 1 D.8.V W ",
"- t u b l x # 0 u S X.] A z.V.R f f Y y.y.g.g.P.I.U.U.L.P.P.J.H.t.g.3.Z V n.v.! ! e.] c p 0 p y l b v z ",
"a ) ` ) ) _ J < l z S | ! v #.V.Y e e Y w.y.S.R.[.R.J.K.R.[.K.S.t.R s d e.b.E x 6.] v b < t L ` _ ` | _ ",
"z #.` L W / V -.5 u c m A g d o.O.l g ! w.t.u.}.OXI.w.0.}.OXH.@.@.Y f b c.V e m A l l 0 7 P ( %.n m o.n ",
"z L n m i n v 2 , u u 9 i q 9 q n a V [ u.y.w.J.7X7Xy.J.7XK.S.@.r.w.I b v = 9 q 9 0 y : 5 f m n h M D D ",
"= i u M z z u u L n n ( / } } ..{  .c.:X8XrXy.pXsXsX7XpXfXfXR.7XrX7X9Xn.W  .} ` / L z v u i M M M c i 9 ",
"Q | +. .' ' L $.$.#.x.Z.Z.3X3X0XM.5XyXuXaXiX8XfXfXfXeXfXfXfXpXwXgXiXaXyXv.1X6X<XZ.B.x.#.' L #.( }  .` ` ",
") T G.0.e.*.z ( #.Z.Z.B.3X5X1X2X+.4X6X8XyX1X+.wXrXtX:XwXtXaX8Xr.uXyXyX0Xb.c.6X5X3Xm.N.*./ n *.O.7.D.T ) ",
"+.H.dXR.:X$.W *.3X5X5XZ.6X0XqX0X2XyX8X0XyX0X2XtXtXgX7XtXdXiXrX2XuXyXyXuX0X:XqXqXqX6X5X3Xx./ +.>XU.fXH.&.",
"&.,X&.;X` u *.3X3X3XZ.5X6X0X0Xb.<XyX6XyXyX>Xb.wXeXrX:X7XwXwXwX&.uXyXyX0X0Xc.0XqX5X6X,X3X3XB.Q ' B.;Xm.&.",
">X<X1X0X&.a $.*.*.*.&.c.x.c.l.` +.c.b.;X&.Q v c.6X0X1X4X1Xb.) b X.M.>XC.v.| z.m.l.k.l.x.x.} v %.5X1X>XC.",
"c.z.| | ,Xc.' *.Z.c.D.R.L.U.I.9.D.I.I.I.7.) +.1Xn.n.v.n.n.C.z.b R L.I.R.Y.9.L.I.U.D.n.Z.B.l.C.0XX.[ ..} ",
"O.x 2 k [ N.O.L x.b.K.eXeXtXeXK.7X7X7X7X:X_ ;X+.I N H 6 V ] l.Q +.7X8XrX7X9XeXeXeXK.M.B.#.M.0X3.2 1 x ( ",
"! 5 F.oX-.] #.z *.B.B.m.c.c.&.&.v.m.N.N.B.L  .l Y F.%X].2.x ^ b ' N.N.N.m.x.x.x.l.m.m.x.L c.I F T.).P n ",
"! -.xXNXD.V m # $ : # : # = $ = : = # # # q / w -.zXVXbXf.w A e + # # # , = 8 # $ # : $ 0 { e ;.MXbX3.E ",
"I P ].fX;.x c @ # w 9 9 8 i = 8 9 9 0 8 8 8 W t -.%XbXhXq.x v e + 8 : 8 0 e 9 e 8 9 9 : w ~ t G OX}.7.! ",
"v ~ ! R I A v $ 8 g h c i i 9 i h c h M 9 $ n x ] 7.0.q.3.^ m 9 $ i g h c h i h c h g e 8 E x f T 3.6.B ",
"  p Q ) B ^ c $ h c h S S S S m S S S S h 8 A c Y r.n.n.X.B A 8 9 S S S S S S D S c h B 8 A S S / ! B   "
};
