/* XPM */
static char *groud[] = {
/* columns rows colors chars-per-pixel */
"50 50 256 2 ",
"   c #283418",
".  c #183328",
"X  c #222C24",
"o  c #243724",
"O  c #283A28",
"+  c #323A23",
"@  c #303C28",
"#  c #233832",
"$  c #283B30",
"%  c #303B30",
"&  c #363B34",
"*  c #393B3A",
"=  c #254326",
"-  c #294229",
";  c #344321",
":  c #304228",
">  c #384329",
",  c #324A2B",
"<  c #394A2A",
"1  c #285028",
"2  c #32542C",
"3  c #3B522C",
"4  c #38562C",
"5  c #264435",
"6  c #284130",
"7  c #304230",
"8  c #384330",
"9  c #314931",
"0  c #394A31",
"q  c #304238",
"w  c #384338",
"e  c #314A38",
"r  c #394A38",
"t  c #3B5232",
"y  c #395735",
"u  c #3A5238",
"i  c #424728",
"p  c #414B2A",
"a  c #41522B",
"s  c #47562C",
"d  c #52572D",
"f  c #404431",
"g  c #404B31",
"h  c #484B32",
"j  c #404438",
"k  c #414B39",
"l  c #494C39",
"z  c #425332",
"x  c #495432",
"c  c #435A33",
"v  c #4B5A34",
"b  c #425339",
"n  c #49543A",
"m  c #435A39",
"M  c #4B5B39",
"N  c #565B37",
"B  c #515C34",
"V  c #51553B",
"C  c #515C3A",
"Z  c #64593C",
"A  c #456534",
"S  c #4B6134",
"D  c #4A6E34",
"F  c #43623A",
"G  c #4B623A",
"H  c #4B6A3B",
"J  c #526234",
"K  c #586734",
"L  c #53633A",
"P  c #59643A",
"I  c #536A3B",
"U  c #5A6B3B",
"Y  c #56753A",
"T  c #5B723C",
"R  c #68712D",
"E  c #646938",
"W  c #616C3B",
"Q  c #62723B",
"!  c #69733B",
"~  c #657939",
"^  c #727739",
"/  c #364841",
"(  c #324F41",
")  c #387040",
"_  c #464643",
"`  c #414A40",
"'  c #494B41",
"]  c #504C42",
"[  c #504C48",
"{  c #455544",
"}  c #4A5342",
"|  c #4B5A41",
" . c #515442",
".. c #595642",
"X. c #525B42",
"o. c #595D43",
"O. c #525349",
"+. c #58544A",
"@. c #535A4A",
"#. c #595B4A",
"$. c #4E4C51",
"%. c #595550",
"&. c #555854",
"*. c #5A5B52",
"=. c #695847",
"-. c #615C52",
";. c #645856",
":. c #605D58",
">. c #4B6341",
",. c #4A6941",
"<. c #536341",
"1. c #5A6442",
"2. c #536B41",
"3. c #5A6B41",
"4. c #536449",
"5. c #5B634A",
"6. c #5A6B49",
"7. c #537341",
"8. c #5B7242",
"9. c #577947",
"0. c #5A7A42",
"q. c #527449",
"w. c #5A7248",
"e. c #5B6252",
"r. c #5B6554",
"t. c #616C41",
"y. c #666A45",
"u. c #61644B",
"i. c #626B4A",
"p. c #716A45",
"a. c #627241",
"s. c #697441",
"d. c #627A42",
"f. c #697A41",
"g. c #627349",
"h. c #697449",
"j. c #617A49",
"k. c #697A49",
"l. c #707441",
"z. c #717B41",
"x. c #767846",
"c. c #717B49",
"v. c #626353",
"b. c #686452",
"n. c #636A52",
"m. c #696C52",
"M. c #63635A",
"N. c #69645A",
"B. c #64695B",
"V. c #6A6A5B",
"C. c #716B5A",
"Z. c #6A7252",
"A. c #667852",
"S. c #6B715A",
"D. c #717B51",
"F. c #737856",
"G. c #71735A",
"H. c #5E5A60",
"J. c #696560",
"K. c #656863",
"L. c #6B6A62",
"P. c #716C62",
"I. c #776C65",
"U. c #716D68",
"Y. c #6C7163",
"T. c #6C7269",
"R. c #727263",
"E. c #797263",
"W. c #737963",
"Q. c #797A62",
"!. c #737269",
"~. c #79746A",
"^. c #74796A",
"/. c #7B7A6B",
"(. c #706C70",
"). c #797570",
"_. c #767973",
"`. c #7B7A72",
"'. c #857248",
"]. c #98754B",
"[. c #8B6B60",
"{. c #827A63",
"}. c #807569",
"|. c #827A6B",
" X c #837873",
".X c #817C72",
"XX c #887D71",
"oX c #827D78",
"OX c #A87664",
"+X c #558234",
"@X c #6E8438",
"#X c #5B8247",
"$X c #588F4D",
"%X c #628445",
"&X c #698242",
"*X c #698249",
"=X c #698A49",
"-X c #718242",
";X c #768742",
":X c #718249",
">X c #788349",
",X c #708949",
"<X c #788A48",
"1X c #679346",
"2X c #739345",
"3X c #789148",
"4X c #678551",
"5X c #708250",
"6X c #748755",
"7X c #788350",
"8X c #788A50",
"9X c #669251",
"0X c #729453",
"qX c #789150",
"wX c #76A257",
"eX c #7B8269",
"rX c #749560",
"tX c #7C8173",
"yX c #7B817A",
"uX c #78C050",
"iX c #849237",
"pX c #838745",
"aX c #808B49",
"sX c #859547",
"dX c #809148",
"fX c #919349",
"gX c #808B50",
"hX c #828957",
"jX c #809150",
"kX c #849755",
"lX c #889150",
"zX c #919852",
"xX c #8DA554",
"cX c #A3A057",
"vX c #828565",
"bX c #899762",
"nX c #838174",
"mX c #898273",
"MX c #838279",
"NX c #898379",
"BX c #848878",
"VX c #8A897A",
"CX c #908778",
"ZX c #8FA863",
"AX c #B5C265",
"SX c #847A83",
"DX c #848681",
"FX c #898580",
"GX c #898981",
"HX c #908A80",
"JX c #908B87",
"KX c #939083",
"LX c #909088",
"PX c #989288",
"IX c #979690",
"UX c #A0978E",
/* pixels */
"P s.N p P ! v ! =X- : G P w.w.1.u h.h.u *.@.!.T.oXCXJXJXCXNXnXMXMXBXMXnXBXmXNX/.!.V.L.*.n n b n c c ",
"h N P E B p p K kXM @ G 1.g.1.f L 7X7Xb k *.!.FXCXJXHXHXCXoXNXMXnXNXBXMXNXnX`./.~.V.v.O.b 1.P n < b ",
"B B P y.P g g B *XwX- S 1.I 1.p X.h.7X<.j #.T.FXFXPXHXFXMXnXMXMXMXBXMXMXNXnX^.`.V.e.O.O.x 1.8X1.0 < ",
"x B E P ! K g g =XkXM G <.w.g.2.b u 7X>Xr !.U.FXJXHXCXHXMXMXNXBXMXNXVXBX`..X!.L.*.O.e.*.n n k.8Xa.0 ",
"M g.M M ! ! P 0 ,XkX,XT T &X&X&XM $ % g.@.L.nXoXNXmXMXnXBXmXMXVXmXNXNX/.).).).O.} X. .k k k G f.dXN ",
"M M w.M U s.s.P T qXqXS &X~ &XI M g.M : r Y.yXoXMXMXNXMXnXmXnXNXNX`.`.~.).K.N.O.r #.| l k M M 3.aXs.",
"M 8 8 M c s.s.P M ,XqX8.I T T r M 8X8Xg.k L.T.MXMXNXMXNXNX`.nX`./.!.U.L.M.M.O.j l X.X.5.M k U C f.dX",
"0X0XM & 0 9 s.P m ,XkX8.m r G r 8.g.M w.#.L.oXyXMXNXMXMX`.^.`.`.U.!.L.K.J.O.j O.n  .@.5.| b U U N dX",
"<.xXxX9XY >.| | e T 2XG t 2.w.I j.G 0 0 O.B.B././._.`.`.T.U.!.U.K.L.K.K.V k C V g g n M V j E ! v ^ ",
"w 2.9XxX2XT T | e G @XG < j.m M G 8 0 0 { { Q.M.`.L.L.M.M.M.K.N.*.B.*.' k V u.n M C g C x V ! P & U ",
"4.r r 2.%X2X@X8.e G %XH M m m j.d.d.G 0 & [ B.M.M.M.M.&.J.*.%.*.&.$.$.& r p.u.y.Z.h.5.6.P V j v & n ",
"=X2.2.r m 8.%X8.G Y G e m m j.9.k.qXqXqX^.O.{ O.*.@.%.*.%.%.[ [ _ ' ' & V c.C j g g M h.j g k j d U ",
"<XT T U M q q G H H m b G F F Y %X%X9.*X8X8Xk ' '  .|  .O.` ` _ 8 | 6.r i.<.9 9 b m P b g V d p , x ",
"T T c $ e m 8.@XY D r c F G e u ,.<.2.,.` b b b l _ ' _ / ` / ` r r M 6.u 9 u 9 m m 2.m f d n f E E ",
"c $ $ $ m 2X@X2XY w r H Y Y F e % % b % # l $ b 5.g. .X.} | 5.} | b k u , b b , 6 , 7 7 p f i Z '.E ",
"O $ m Q 8.T 0.m r m D H #X1XY Y b b b u l 6.l b } 1.X. .| 5.5.5.| | M | u b u X.3.k.k.2.V 8 d ^ E 6 ",
"^.L.L.L.N.!.N.!.M.r.Y.M.$.eXrXY.9.` b u $ P z z M 0 r C m 1.2., I H I t 0 c G J U G U s.f.z.f.h.< k ",
"_.^.^.^.`..X`.yX_.^.^.^.Y.r.r.W.rXq.k b 6 z N z O r r L I m 9 6 7 - , 0 S I S y G U m U v M zXl.M 5.",
"^.^.^._.`..X`.`.^.^.^._.Y.Y.S.$.4.q.A.u 6 $ N ! C $ $ r P m 9 m c v 0 H J c 3 3 b m G U - l.fXv x M ",
"MXMXMXLXGXVX`.GX`.).yX_.A.Y.W.S.,.>.4.4.g K g ^ t.M M t.m 7 m k.I t I F c c m c y m M m - h.z.- z 5.",
"VXGXPXIXLXGXGXGXJXVXNXNXVXBX`.nX_.`.N.@.k b b l P P P P u b k.8.: ! s.! W @ : n a.L a.G p '.! i w J ",
"MXLXGXLXGXBXGXGXHXHXCXVXVXGXGXMX)././.O.l # b 6.s.P P m k 8.k.b z s.z L >Xx : : L J a.T B R R p w B ",
"GXLXHXGXLXGXGXGXCXGXKXVXGXGXLXGX/.)././.` $ 5.7Xs.P P y r 8.G b K s.a x W c.x @ t M a L ! d d p 8 x ",
"KXPXVXKXGXGXGXGXGXHXCXGXGXGXLXLXHX/./.).6.m <Xi.5 P P P L b k G f.s.z : x >XE n a L z : i p K i l N ",
"GXGXGXGXKXCXHXKXGXBXGXGXGXGXKXVXHXnXoX_.).M.8 8 9 K E ! P s i E E B x 8 0 N x.E '.'.zXcX^ E N h > x ",
"GXVXGXGXGXGXGXGXVXGXVXBXGXKXKXVXGXVXnX`.)./.& & 7 c J J P h s A.U 8 h B p V E E t.f f W ! '.^ d 8 8 ",
"GXGXGXGXGXGXGXHXBXBXmXCXGXGXGXKXHXVXNXoX).).} 8 c z z b E + + k.B 8 C > f N d x.y.0 h g N E E Z h z ",
"GXGXGXCXGXVXGXGXVXNXVXBXVXGXGXGXNXNX`..X).).M.& N J 9 z i + h k.h B E U E x.E E W g p h h h N N x k ",
"VXVXGXVXVXVXBXNXBXmXBXVXBXBXNXBXBXMXnXnX`.T.L.k g c.r O s o U U g L s.s.x.W W n V C < 0 i i i i > h ",
"GXGXBXBXVXVXNXVXBXBXBXVXmXBXBXnXVXtXMXNXMXyXL.k O x.N O + o :XU a L >XQ h 7 % $ B n V V N p.N N h i ",
"BXNXNXGXVXVXBXmXBXMXBXMXNXBXMXBXNXBXnXBXMXL.L.@.O h.c.O O U :Xz 0 s.>Xt x % 7 x V E '.>X'.lX^ ! N i ",
"BXNXMXVXVXBXVXmXBXMXMXyXBXnXMXNXtXGXVXLXoXMXL.&.O x.c.g O U r O a >Xs.g E 7 % x C C 0 B i N i i > i ",
"VXBXVXVXNXMXMXMXeXVXBXBXmXNXVXNXyXGXGXLXNX`.`.r.j 6.:Xg v c : M B pX0 N ^ N + i n 0 8 0 8 0 8 } *.*.",
"BXMXMXBXVXMXBXNXBXNXNXVXGXVXVXNXDXMXLXGXNX/.`.K.k i.:Xj M m a.a.iX! < J ^ N i N y.V 8 > } v.!.*.B.L.",
"VXBXBXMXVXyX`.BXBXVXVXHXJXJXGXVXMXFXGXLXNXVX`.H.j t.t.k g.a.w.8X! < 0 N N N p N n 0 8 V U.T.U.!.B._.",
"BXBXBXtXMXMXMXBXmXCXHXKXGXJXJXHXDXFXGXGXMX/.`.B.k C 6.C <Xg.<X8XC J N 0 K N p p 0 n n F.!.!.U.T._.GX",
"NXNXBXNXBXBXNXVXGXGXGXGXGXGXGXBXMXGXHXNXGXnX~.P.n x s U I k.k.U J U I x > l n & %.&.J.~.).`.^.NXGXLX",
"tXMXMXMXNXVXBXGXGXGXGXBXNXGXVXGXMXVXHXVXGX`.oXP.< x U U J I a.I B I J x l > @ n N.~.~./._..XMXHXLXLX",
"MXBXMXnXBXVXBXVXGXGXGXGXGXBXVXBXGXNXGXVXGX`.~.L.x x B x C U I U B S x S v.& n !.~.~.oXXXyXnXVXGXGXGX",
"MXMXBXNXNXVXGXNXBXDXGXGXGXGXNXVXVXyXNXMXGXnX/.C.f g g n I g.a.g.a.a.a.Q ' n !.I.~.~.NXNXNXHXNXNXJXGX",
"nXnXMXMXnXMXBXGXBXBXBXVXVXVXmXNXNXtXVXtXVX`.).T.n g p n 0.T J G <.i.i.<.e.V.V.~.`.MXNXVXGXGXGXGXBXGX",
"MXtXtXBXeXMXBXBXVXVXVXBXbXVXBXVXBXyXBXMXNX/.MXU.N p n W s s J d.D.D.k.6.V.V.~.yXMXGXGXJXHXGXVXGXGXVX",
"GXDXBXnXBXnXNXBXVXVXVXBXBXBXNXmXBXBXBXtXMX`.`./.y.< n x v J I d.k.i.X.<.^.^.yXMXNXLXGXGXGXGXGXGXBXGX",
"BXGXGXBXnXtXMXBXBXBXBXVXCXVXBXVXBXBXyXtX`./.`.K.N g g g J S J s b b k i.^.oXnXMXGXLXGXGXVXGXGXGXVXVX",
"GXGXGXGXGXNXNXBXVXVXVXBXBXBXBXBXBXVXmXNX|..X!.:.M g g v L U t.a.@.X.v.G.|.nX|.MXHXGXHXHXGXGXGXGXGXGX",
"GXDXDXLXBXVXNXNXmXBXVXBXBXCXBXCXmXBXBX|..X.X.X+.v g P a.t.t.t.c.Q.G.G.S.`.|.MXGXHXHXGXGXGXGXGXMXMXFX",
"GXGXDXDXBXGXVXmXvXBXBXmXVXVXBXVXBXmXnX`.`..XI.&.g g M < z p z a r.G.hX{.`.nXGXLXHXCXGXGXGXDXyXBXDXMX",
"GXGXGXGXVXGXBXmXBXVXvXVXVXBXmXVXBXNXnX|.|.!.M.%.g g v a.c.k.c.L X.X.v.S..X.XGXPXGXHXGXFXMXMXMXMXFX`.",
"DXGXBXGXBXGXGXBXNXMXBXNXBXBXNXVXBXnX`.oX_.L. . .n U U I Q Q ! x.*.O.L._./..XVXHXGXBXMXyXMXBXBXyXNXnX",
"GXGXGXBXGXBXBXVXyXMXnXBXCXBXbXBXBX.X/.oXL.T.V  .I P s.f.! L b L O.O.L._.Q.tXHXKXGXyXyXMXMXMXnXMXMXNX"
};
