/* XPM */
static char *ground[] = {
/* columns rows colors chars-per-pixel */
"50 50 116 2 ",
"   c #3A4F35",
".  c #3E5435",
"X  c #3E5939",
"o  c #434F37",
"O  c #445434",
"+  c #485635",
"@  c #455A35",
"#  c #4B5C35",
"$  c #455639",
"%  c #4A563B",
"&  c #465A39",
"*  c #4C5C3B",
"=  c #525D36",
"-  c #50573B",
";  c #525D3C",
":  c #5A5F3D",
">  c #456135",
",  c #4C6136",
"<  c #466438",
"1  c #4D633B",
"2  c #4D6B3D",
"3  c #526137",
"4  c #5A6437",
"5  c #566A36",
"6  c #53633B",
"7  c #59653C",
"8  c #556A3D",
"9  c #5B6B3D",
"0  c #5C703E",
"q  c #606B3C",
"w  c #62723F",
"e  c #4C5741",
"r  c #4D5B41",
"t  c #515741",
"y  c #545C43",
"u  c #5A5E46",
"i  c #555749",
"p  c #565C4A",
"a  c #5A5E4B",
"s  c #5C5D52",
"d  c #605E4D",
"f  c #4F6040",
"g  c #4E6A40",
"h  c #556343",
"j  c #5A6444",
"k  c #556B41",
"l  c #5C6B44",
"z  c #556249",
"x  c #5C644B",
"c  c #536848",
"v  c #5D694B",
"b  c #4F7041",
"n  c #557141",
"m  c #5C7243",
"M  c #5F7048",
"N  c #5E6451",
"B  c #5E6950",
"V  c #616647",
"C  c #616C45",
"Z  c #61654D",
"A  c #626B4C",
"S  c #647444",
"D  c #6A7541",
"F  c #667942",
"G  c #6E7C46",
"H  c #66734A",
"J  c #69744A",
"K  c #637849",
"L  c #6B784A",
"P  c #626553",
"I  c #646A53",
"U  c #696D56",
"Y  c #66655A",
"T  c #69665B",
"R  c #666A5A",
"E  c #6B6C5C",
"W  c #716F5E",
"Q  c #657152",
"!  c #6B7254",
"~  c #6B7B53",
"^  c #6D725B",
"/  c #6F785B",
"(  c #737957",
")  c #70735D",
"_  c #72785F",
"`  c #6A6761",
"'  c #6D6C62",
"]  c #736E64",
"[  c #726F69",
"{  c #6E7261",
"}  c #6E7268",
"|  c #737365",
" . c #787266",
".. c #757965",
"X. c #797966",
"o. c #75746A",
"O. c #79756C",
"+. c #77796A",
"@. c #7B7A6D",
"#. c #787670",
"$. c #777970",
"%. c #7D7C72",
"&. c #817A6E",
"*. c #827D73",
"=. c #837F79",
"-. c #6D8045",
";. c #7F806F",
":. c #7F8171",
">. c #848176",
",. c #888276",
"<. c #86837A",
"1. c #89857B",
"2. c #878879",
"3. c #89887C",
"4. c #898680",
"5. c #8A8882",
/* pixels */
"8 k o.` ; = 6 = ^ 3. .& * %.5.$.g n m f 8 v +.| r r i t ..2.>.{ 6 1 9 ( 4...A 3.=.z z +.1.4.1.=.Y 3 ",
"Q x r * * = # 3 U <.>.z f %.5.$.c / :...M k v h & O @ y @.2.3.<.R 7 l @.5.%.U E ` 1 1 P %.1.=.| p c ",
"3.%.y = - = = # j | ` * f ` :.B c :.3.2.@.m 8 3 O O O & ' 2.2.3.$.l H <.4.4.N # # , 2 6 v I P 6 v %.",
"2.2.v h W @.j = # y P E B f r e c :.2.2.>.I M V 3 + O @ p o.=.:.o.h I :.4.%.z @ # # , 5 S H k * | 2.",
"2.>.v ^ 1.%.Z = 3 P 2.1.>.v > X & $.>.2.>.P ) O.Z # @ O > r P Z h 6 8 { >.| 7 # 3 9 U l ) O.P h %.3.",
"3.| ; z P x U E k | 2.,.2.{ g @   B %.>.| x  .O.P 6 & # 7 U W H 8 0 1 7 N j 8 8 5 ) =.U R ` z j @.2.",
"E y $ @ & p $.:.P P ;.>.>...g 1 f B P x $ u ] | J U | k E &.W A H / { { v * 6 6 6 O.*.Z 7 j l 9 U @.",
"$ * $ O O z $.%.B 6 P | ..B , * R :.%.z @ * s A D X.&.j V E P j { %.%.=.+.h # = 7 P R Z | +.| ! k y ",
"* 3 .   < x } Y p h 1 r * , # @ E =.>.N 1 3 * = 7 W ] k = h * v +.;.:.%.%.z 3 l C 7 7 ) <.=.4.3.+.j ",
"6 = X & k m c k I :.{ 7 # @ @ # U =.*.a 1 1 3 & @ j z 8 8 6 < P +.:.:.%.+.j l @.*. .Z | <.4.1.>.,.| ",
", @ > < n n b g v | { 6 + + + # Z O.T 6 3 , & < * !  .X.U 9 9 Z ;.:.*.%.o.h  .,.*.*.W U %.<.<.*.@.P ",
", , < 2 2 g g g 2 h c 1 5 , = 3 9 j u Z 6 < * * E 2.2.*.@.I l v ..%.%.*.' v | *.*.=.` 7 P T R U v 6 ",
"5 1 1 2 8 2 b < 1 8 1 8 C U V # 5 J W ] Z 6 O r *.2.*.*.X.P 6 y Y @.@.[ P C v R R P u 7 C 6 6 U ^ j ",
"8 8 V W ^ n g g 8 w 6 h | %.W : = Z ]  .E 7 @ z >.>.*.@.! j j V t a P Z A H C 9 V Y Z C S 8 v =.<.O.",
"6 v @.&.*.Z 2 k l H 9 Z X. .P 4 : T  .] U j 1 B *.@.) x u W  .&. .x j I @.$.P v O.*.*.O.U 8 v %.*.o.",
"l  .*.&.&.U 6 ^ &.>.U 9 Z x : 3 - Y  . .) j = 6 R P u ; W &.&.&.*.P x $.*.%.U I *.*.*.=.@.m h P ' N ",
"V &.=.&.&.N c >.>.>./ j V U T V = u T T Z = h j 7 7 # Z &.&.&.&.] j R %.@.O.U v ..%.*.>.%.m 8 k B A ",
"y &.*.*.| y 6 U R U S 7 W  .] E : = h y a ; R @.Q 7 # P &.O.] Y p ; P | o.R k 9 P O.=.=.| z { v +.:.",
"z P ] T u 6 L P P I 7 % W ] ] E ; # * E ] z E *...j 3 = y p t u a j h l z j 6 9 k v I R p } 2.! R %.",
"f 3 P U 7 Z %.2.>.>. .; Y E P z ; * z T T * z | R c 7 & o + a ] o.I 7 Z @.>._ U v h 6 h B >.@.L 6 i ",
"# z 2.@.j ..>.*.>.>.@.c = y 6 3 1 * & e e . & * % N ' E p & x ] R L 6 E >.*.*.+.{ h 1 * B o.x 7 = 3 ",
"@ R ,.Y * P +.%.>.@.T ; Q X._ j & $ X X & & $ $ e E ]  . .x * A l Q z P  .&.@.O.+.z & * * r = & & # ",
", p Z + . @ a R R s t E 1.>.>.{ 1 . X < c z 1 & x ` | o.O.' 1 1 +.1. .c v E O.O.{ z x { x * ; * 1 # ",
"v N N * # + * 6 ; + v >.>.:.@.@.B $ e R %.@.P 6 j Y ` o. .] z $ R ] P 1 @ * y z p z @.3.%.v 6 6 1 1 ",
"%.>.*.] # # 7 E @.P ! %.>.@.@.+.x & E &.&.&.R 3 9 I ` ] W T r @ 3 r % , p R P p f z %.<.1.+.k * 3 B ",
"=.>.,.*.Z # ! >.%.P N +.;...{ N * *  .*.&.E h 6 = y a d s i y * > O $ * R O.o.} B p $.<.<.>.~ 6 Z %.",
",.1.=.=.E h $.@.E y k Q ~ F l x P Z I E d % & ; t ; - 6 y v @.A # & + = I | O.] R r Y :.>.>.| 7 | 3.",
"3.1.,.=.Z 7 P x z U ! G 0 k { %.*.@.a * * * U >.2.=.@.) 8 l @...k = + + Z ] o.o.E r y B ` ' v * o.3.",
"3.>.@.Y 6 3 3 h o.%.%.R 6 R *.*.*.=.W w 9 j >.2.*.*.&.*.E 3 N Z 7 7 & + j E ] ] P k h * h k * 1 P %.",
"E U H 6 , 3 6 z $.4.:.$.e ] *.*.*.*.) 6 3 v >.%.*.*.*.*.| # @ 6 S 9 6 # * Y ` ` v v B f c { O.^ x v ",
"h 7 6 3 = # + ; +.:.<.@.y ] *.*.*.*.W # @ * R @.&.*.#.@.P + 3 6 C w C V y y a p Z *.:.v R 1.4.4.%.v ",
"9 , & = 6 7 7 6 ` %.>.O.t ] &.*.*.*.P 6 U | I h Z T T Z h j V 7 9 ! &.*. .P - h *.=.%.v z #.:.<.3.{ ",
"9 ; y ; 6 7 = : t Y O.] - E *.*.O.s t ) 1.1.>.v 3 + + y | 2.*.U 9 ^ >.>.*.&.P a &.@.E c j v ^ %.%.^ ",
"j E [ E z = 7 = + % y t % x ] R t o y @.,.2.>.U 1 & = I *.2.@.Z 9 P *.=.=.=.O.i s a a  .@.| H v z 1 ",
"'  .O.+.B k U Z = 6 j T P h m n 1 $ z *.=.>.*.P 6 h j j I U x x A C W @.*.&.] z ; j @.=.=.<.^ 9 S H ",
"[ [ O.#.A Q >.%.A A W ] E M g 6 * $ y O.%.] Y c l { +.+.U j j +.>.^ j d a d u 6 h ) =.*.*.<.! k k P ",
"O.#.O.O.z U @.+.D V ` T x 7 1 1 1 & r z v v l C E o.} } } I p | >.O.V J E U j 6 u %.=.*.*.@.K m v ] ",
"O.O.#.] y + y l q = i - v Z j 1 f * e r h H l j ^ } } ' } R h a ` P Z +.o.' ^ F P %.@.O.` A H 9 P [ ",
"#.[ ` z + : Z E Z - + Y =.=.^ 7 * r P E | ! C 7 x ' ' o.{ C 3 k u ; ` O.' ` E l j E R I 7 ! X.Z Z ` ",
"N p h 6 3 R *.=.*.V - *.&.*.@.6 y ' *.*.=.%.I ; t x Y P v v C ^ j j ] [ ' ' ~ S 9 l 7 w w ! *.@.j x ",
"k j E V V *.=.=.=.W ; O.*.*.] ; x %.*.*.=.=.R 6 u a y 7 j Y ' R ; j ! ' P J w 9 7 9 9 w -.C | =.I 7 ",
"7 ] O.P v =.1.=.=.E * a `  .N y x | #.#.o.Y j E *.*.I 6 6 j p % ; 7 C Z y 9 0 q = = 7 9 C v u T a + ",
"v O.] P P =.1.<.=.U 3 7 j j z 6 p y z z y - ;  .&.T y 6 3 # O O 7 j k 7 U A 2 , 3 # 9 7 ] ] Z : ; = ",
"v ` T y x *.1.,.&.A 0 9 Z | ' r r = h P E U y y a ; & @ , @ . O c +.I j 2.X.9 8 9 8 9 9 P ] ] u 4 3 ",
": - ; 6 ; E O.' J w 9 A *.=.%.p r c | %.*.#.E y y ) Z @ > < & X N >.o.z @.~ 8 9 9 6 3 w D Z Y u = = ",
"= # 4 7 8 k i j : = j *.=.1.%.v f o.*.#.*.@.O.v U ,.&.l > < < & h +.} e k 7 6 8 6 3 6 V ( W V - : 4 ",
"4 4 4 7 9 3 W &.j ; | >.1.3.%.l B =.%.O. .#. .p E ,.>.) * 1 8 @ @ z r < 9 5 0 0 9 9 H *.1.4.=.U 6 4 ",
"q w 9 4 7 u &.*.U A =.=.=.>.P 3 N %.%.O.o.o.Y + U ,.*.) x ..v 8 B | Q m 9 4 w w 9 w ^ 1.=.1.,.*.j 7 ",
"q w 7 A U P *.@.v P ,.*.O.P z k F ` o.' ' P p ; U >.,.E Z ] P k { 3.%.l 7 5 = ( U 1 P <.>.>.=.>.U 7 ",
"q 9 U <.E ; T P j j Z P r x %.{ l j N s i v X.@.A @.*.A h p r 8 M R Q C 9 3 j 2.*.h A >.>.1.=.>.Q 7 "
};
