/* XPM */
static char *player_left[] = {
/* columns rows colors chars-per-pixel */
"64 64 144 2 ",
"   c #4A3C55",
".  c #5B637E",
"X  c #BE9700",
"o  c #BE9800",
"O  c #C39D00",
"+  c #C7A000",
"@  c #CEA400",
"#  c #D1A700",
"$  c #D4AA00",
"%  c #DAAF01",
"&  c #DFB301",
"*  c #ECBD02",
"=  c #E6BF19",
"-  c #EFC30E",
";  c #F3C301",
":  c #F9C701",
">  c #FFCC00",
",  c #EEC310",
"<  c #DEC23D",
"1  c #E3C025",
"2  c #E6C83C",
"3  c #A99E49",
"4  c #B7AE5E",
"5  c #9CA377",
"6  c #DDC240",
"7  c #E0CD5F",
"8  c #DCCA60",
"9  c #DECE73",
"0  c #43668A",
"q  c #557192",
"w  c #1783B3",
"e  c #1884B4",
"r  c #1C8BBD",
"t  c #2C89B2",
"y  c #358FB7",
"u  c #4D93BD",
"i  c #5897B0",
"p  c #5299BD",
"a  c #6D9FB2",
"s  c #1E8FC1",
"d  c #2092C5",
"f  c #2296C9",
"g  c #249ACF",
"h  c #3D90C0",
"j  c #279FD4",
"k  c #28A1D6",
"l  c #2CA9DF",
"z  c #3CABDB",
"x  c #2DACE3",
"c  c #36ACE0",
"v  c #32B3EB",
"b  c #34B7F0",
"n  c #36BBF5",
"m  c #3ABCF5",
"M  c #4FA4D1",
"N  c #5AAFDA",
"B  c #63B6DE",
"V  c #40B0E2",
"C  c #54BEEB",
"Z  c #59B6E3",
"A  c #45BFF5",
"S  c #65BFEA",
"D  c #57C0ED",
"F  c #4CC1F4",
"G  c #53C3F4",
"H  c #58C5F4",
"J  c #6BC2EA",
"K  c #62C1EC",
"L  c #65C9F4",
"P  c #6DCBF4",
"I  c #61C7F4",
"U  c #75CDF4",
"Y  c #7FD0F4",
"T  c #95A592",
"R  c #B5B883",
"E  c #8DA7AB",
"W  c #8EA8AD",
"Q  c #90A9AE",
"!  c #86ADBB",
"~  c #93ACB2",
"^  c #97B1B6",
"/  c #9AB2B7",
"(  c #9DB5BB",
")  c #AEBCA4",
"_  c #A2B9BF",
"`  c #A4B5B8",
"'  c #D5CE84",
"]  c #D6CF88",
"[  c #D3D392",
"{  c #CECFA1",
"}  c #CED1AC",
"|  c #C9D3B6",
" . c #CBD2B9",
".. c #A4BCC2",
"X. c #AABFC4",
"o. c #B3BFC1",
"O. c #A8C1C6",
"+. c #AEC5CB",
"@. c #B0C4C9",
"#. c #B3C8CF",
"$. c #AAC9D6",
"%. c #AECCD9",
"&. c #B4CCD2",
"*. c #B9CED6",
"=. c #BED2D6",
"-. c #BDD5DB",
";. c #82D1F4",
":. c #89D3F3",
">. c #96D7F3",
",. c #99D8F3",
"<. c #A7DCF3",
"1. c #B3DFF3",
"2. c #B3E0F3",
"3. c #BDE2F2",
"4. c #C6C8C8",
"5. c #CBCBCB",
"6. c #C4D3CC",
"7. c #CDD8CF",
"8. c #C2D7DD",
"9. c #C4D9DE",
"0. c #C8D8DE",
"q. c #CAD8D6",
"w. c #D4D4D4",
"e. c #DCDCDC",
"r. c #CCDDE2",
"t. c #C7DBE1",
"y. c #D0DFE5",
"u. c #DEDFE0",
"i. c #D3E1E7",
"p. c #DBE1E3",
"a. c #DCE6E8",
"s. c #DFEAEE",
"d. c #C3E4F3",
"f. c #C9E6F2",
"g. c #D5E9F2",
"h. c #DBEBF2",
"j. c #E4E4E4",
"k. c #E1E7E9",
"l. c #E3EAEC",
"z. c #ECEDED",
"x. c #EBEFF1",
"c. c #EDF0F0",
"v. c #F2F2F2",
"b. c None",
/* pixels */
"b.b.b.b.b.b.b.b.b.b.b.b.b.b.b.b.b.b.b.b.b.b.b.b.b.b.b.b.e k k g f r e e e e e e e e w b.b.b.b.b.b.b.b.b.b.b.b.b.b.b.b.b.b.b.b.b.",
"b.b.b.b.b.b.b.b.b.b.b.b.b.b.b.b.b.b.b.b.b.b.b.b.b.b.b.b.e x n n n n n n v x l k g f s s s s e e b.b.b.b.b.b.b.b.b.b.b.b.b.b.b.b.",
"b.b.b.b.b.b.b.b.b.b.b.b.b.b.b.b.b.b.b.b.b.b.b.b.b.b.b.b.w r k n n n n n n n n n m m b b v x f w b.b.b.b.b.b.b.b.b.b.b.b.b.b.b.b.",
"b.b.b.b.b.b.b.b.b.b.b.b.b.b.b.b.b.b.b.b.b.b.b.b.b.b.b.b.b.w e r z D D D D D D D C C C C z s w w b.b.b.b.b.b.b.b.b.b.b.b.b.b.b.b.",
"b.b.b.b.b.b.b.b.b.b.b.b.b.b.b.b.b.b.b.b.b.b.b.b.b.b.b.b.b.b.b.t a $.%.%.%.%.%.%.%.%.%.$.! i b.b.b.b.b.b.b.b.b.b.b.b.b.b.b.b.b.b.",
"b.b.b.b.b.b.b.b.b.b.b.b.b.b.b.b.b.b.b.b.b.b.b.b.b.b.b.b.b.b.b.b.E ..*.*.*.*.*.*.*.*.*.*.+.Q b.b.b.b.b.b.b.b.b.b.b.b.b.b.b.b.b.b.",
"b.b.b.b.b.b.b.b.b.b.b.b.b.b.b.b.b.b.b.b.b.b.b.b.b.b.b.b.b.b.b.b.b.~ #.*.*.*.*.*.*.*.*.*.*.( W b.b.b.b.b.b.b.b.b.b.b.b.b.b.b.b.b.",
"b.b.b.b.b.b.b.b.b.b.b.b.b.b.b.b.b.b.b.b.b.b.b.b.b.b.b.b.b.b.b.b.b.W ..*.-.-.-.-.-.-.-.*.-.#.~ b.b.b.b.b.b.b.b.b.b.b.b.b.b.b.b.b.",
"b.b.b.b.b.b.b.b.b.b.b.b.b.b.b.b.b.b.b.b.b.b.b.b.b.b.b.b.b.b.b.b.b.Q @.y.y.y.r.y.y.y.y.y.t.t./ b.b.b.b.b.b.b.b.b.b.b.b.b.b.b.b.b.",
"b.b.b.b.b.b.b.b.b.b.b.b.b.b.b.b.b.b.b.b.b.b.b.b.b.b.b.b.b.b.b.b.W ( t.i.i.i.i.i.y.y.7.9 9 9 4 3 b.b.b.b.b.b.b.b.b.b.b.b.b.b.b.b.",
"b.b.b.b.b.b.b.b.b.b.b.b.b.b.b.b.b.b.b.b.b.b.b.b.b.b.b.b.b.b.b.b.W *.y.i.i.i.i.i.i.y.6.* * * $ o b.b.b.b.b.b.b.b.b.b.b.b.b.b.b.b.",
"b.b.b.b.b.b.b.b.b.b.b.b.b.b.b.b.b.b.b.b.b.b.b.b.b.b.b.b.b.b.b.E ` i.i.i.i.i.i.i.i.y.0.= * * * X b.b.b.b.b.b.b.b.b.b.b.b.b.b.b.b.",
"b.b.b.b.b.b.b.b.b.b.b.b.b.b.b.b.b.b.b.b.b.b.b.b.b.b.b.b.b.b.b.~ *.i.i.i.i.i.i.i.i.i.t.2 : : : X b.b.b.b.b.b.b.b.b.b.b.b.b.b.b.b.",
"b.b.b.b.b.b.b.b.b.b.b.b.b.b.b.b.b.b.b.b.b.b.b.b.b.b.b.b.b.b.W X.y.i.i.i.i.i.i.i.i.i.y.7 > > > O b.b.b.b.b.b.b.b.b.b.b.b.b.b.b.b.",
"b.b.b.b.b.b.b.b.b.b.b.b.b.b.b.b.b.b.b.b.b.b.b.b.b.b.b.b.b.b.Q 0.i.i.i.i.i.i.i.i.i.i.y.] > > > $ X b.b.b.b.b.b.b.b.b.b.b.b.b.b.b.",
"b.b.b.b.b.b.b.b.b.b.b.b.b.b.b.b.b.b.b.b.b.b.b.b.b.b.b.b.b.E +.i.i.i.i.i.i.i.i.i.i.i.i.{ , ; * $ o b.b.b.b.b.b.b.b.b.b.b.b.b.b.b.",
"b.b.b.b.b.b.b.b.b.b.b.b.b.b.b.b.b.b.b.b.b.b.b.b.b.b.b.b.W / 0.i.i.i.i.i.i.i.i.i.i.i.i.| 1 * ; % o b.b.b.b.b.b.b.b.b.b.b.b.b.b.b.",
"b.b.b.b.b.b.b.b.b.b.b.b.b.b.b.b.b.b.b.b.b.b.b.b.b.b.b.b.W *.i.i.i.i.i.i.i.i.i.i.i.i.i.q.6 * * & O b.b.b.b.b.b.b.b.b.b.b.b.b.b.b.",
"b.b.b.b.b.b.b.b.b.b.b.b.b.b.b.b.b.b.b.b.b.b.b.b.b.b.b.W / y.i.i.i.i.i.i.i.i.i.i.i.i.i.r.8 ; : ; + b.b.b.b.b.b.b.b.b.b.b.b.b.b.b.",
"b.b.b.b.b.b.b.b.b.b.b.b.b.b.b.b.b.b.b.b.b.b.b.b.b.b.b.Q =.i.i.i.i.i.i.i.i.i.i.i.i.i.i.r.] : > : @ o b.b.b.b.b.b.b.b.b.b.b.b.b.b.",
"b.b.b.b.b.b.b.b.b.b.b.b.b.b.b.b.b.b.b.b.b.b.b.b.b.b.W _ r.i.i.i.i.i.i.i.i.i.i.i.i.g.i.i.} > > > $ o b.b.b.b.b.b.b.b.b.b.b.b.b.b.",
"b.b.b.b.b.b.b.b.b.b.b.b.b.b.b.b.b.b.b.b.b.b.b.b.b.W ^ 8.i.i.r.r.r.r.9.9.-.9.9.-.-.-.8.-.=.| | | ) T b.b.b.b.b.b.b.b.b.b.b.b.b.b.",
"b.b.b.b.b.b.b.b.b.b.b.b.b.b.b.b.b.b.b.b.b.b.b.b.b.W ..t.9.8.8.-.-.-.-.-.-.-.-.-.-.-.-.-.-.-.-.-.+.E b.b.b.b.b.b.b.b.b.b.b.b.b.b.",
"b.b.b.b.b.b.b.b.b.b.b.b.b.b.b.b.b.b.b.b.b.b.b.b.Q ^ &.-.-.-.-.8.9.9.9.t.t.r.r.t.r.r.t.r.r.t.r.r.t.o.4.b.b.b.b.b.b.b.b.b.b.b.b.b.",
"b.b.b.b.b.b.b.b.b.b.b.b.b.b.b.b.b.b.b.b.b.5.5.5.` O.-.-.9.r.i.a.s.s.c.c.c.c.c.c.c.c.c.c.c.c.c.c.v.j.w.5.5.b.b.b.b.b.b.b.b.b.b.b.",
"b.b.b.b.b.b.b.b.b.b.b.b.b.b.5.5.5.5.5.5.w.w.w.u.u.z.z.v.v.v.x.h.g.f.d.2.2.2.2.2.2.2.2.2.2.2.2.2.1.2.f.u.w.5.b.b.b.b.b.b.b.b.b.b.",
"b.b.b.b.b.b.b.b.5.5.5.5.5.5.w.e.e.j.z.z.z.z.v.x.g.f.2.,.:.U P B N p u y n n n n n n n n n n n n n n A <.k.e.5.5.b.b.b.b.b.b.b.b.",
"b.b.b.b.b.b.b.5.w.e.j.k.s.g.f.d.3.<.>.Y P G A n n n n n n K .         0 n n n n n n n n n n n n n n n n G 3.a.w.5.b.b.b.b.b.b.b.",
"b.b.b.b.b.b.b.5.j.v.f.P L H G A m n n n n n n n n n n n n J .         0 n n n n n n n n n n n n n n n n n A ;.u.5.b.b.b.b.b.b.b.",
"b.b.b.b.b.b.b.5.j.v.2.n n n n n n n n n n n n n n n n n n J .         0 n n n n n n n n n n n n n n n n n n n c y b.b.b.b.b.b.b.",
"b.b.b.b.b.b.b.5.j.v.2.n n n n n n n n n n n n n n n n n n J .         0 n n n n n n n n n n n n n n n n n n n x e b.b.b.b.b.b.b.",
"b.b.b.b.b.b.b.5.j.v.2.n n n n n n n n n n n n n n n n n n J .         0 n n n n n n n n n n n n n n n n n n n x e b.b.b.b.b.b.b.",
"b.b.b.b.b.b.b.5.j.v.1.n n n n n n n n n n n n n n n n n m J .         0 n n n n n n n n n n n n n n n n n n n l e b.b.b.b.b.b.b.",
"b.b.b.b.b.b.b.5.j.v.1.n n n n n n n n n n n n n n n n n n J .         0 n n n n n n n n n n n n n n n n n n n l e b.b.b.b.b.b.b.",
"b.b.b.b.b.b.b.5.j.v.1.n n n n n n n n n n n n n n n n n n J .         0 n n n n n n n n n n n n n n n n n n n V p b.b.b.b.b.b.b.",
"b.b.b.b.b.b.b.5.j.v.f.P L H F A n n n n n n n n n n n n n J .         0 n n n n n n n n n n n n n n n n n A ;.p.5.b.b.b.b.b.b.b.",
"b.b.b.b.b.b.b.5.w.j.j.a.l.g.f.d.2.<.,.Y P H F n n n n n n K q         0 n n n n n n n n n n n n n n b n H 3.k.w.5.b.b.b.b.b.b.b.",
"b.b.b.b.b.b.b.b.5.5.5.5.5.5.w.e.u.j.j.j.z.v.v.x.h.f.2.,.:.U P H C M p y n n n n n n n n n n n n n n F <.a.e.5.5.b.b.b.b.b.b.b.b.",
"b.b.b.b.b.b.b.b.b.b.b.b.b.b.b.5.5.5.7.w.w.w.w.u.p.l.c.c.v.v.c.h.g.f.3.2.2.2.2.2.2.2.2.2.2.2.2.2.2.2.f.j.7.5.b.b.b.b.b.b.b.b.b.b.",
"b.b.b.b.b.b.b.b.b.b.b.b.b.b.b.b.b.b.b.b.b.b.5.5.` O.-.-.t.r.i.a.l.l.x.c.c.c.c.c.c.c.c.c.c.c.c.c.c.l.7.6.5.b.b.b.b.b.b.b.b.b.b.b.",
"b.b.b.b.b.b.b.b.b.b.b.b.b.b.b.b.b.b.b.b.b.b.b.b.Q ^ *.-.-.-.-.-.-.9.t.t.r.r.t.t.r.r.t.t.t.t.r.r.8.o.4.b.b.b.b.b.b.b.b.b.b.b.b.b.",
"b.b.b.b.b.b.b.b.b.b.b.b.b.b.b.b.b.b.b.b.b.b.b.b.b.Q _ 9.9.8.9.-.-.-.-.-.-.-.9.-.-.-.-.-.-.-.-.-.+.W b.b.b.b.b.b.b.b.b.b.b.b.b.b.",
"b.b.b.b.b.b.b.b.b.b.b.b.b.b.b.b.b.b.b.b.b.b.b.b.b.b.Q 0.i.i.y.r.r.r.r.9.9.9.9.9.9.9.9.9.=.[ [ [ R 5 b.b.b.b.b.b.b.b.b.b.b.b.b.b.",
"b.b.b.b.b.b.b.b.b.b.b.b.b.b.b.b.b.b.b.b.b.b.b.b.b.b.Q _ r.i.i.i.i.i.i.i.i.i.i.i.i.i.i.i.} > > > $ o b.b.b.b.b.b.b.b.b.b.b.b.b.b.",
"b.b.b.b.b.b.b.b.b.b.b.b.b.b.b.b.b.b.b.b.b.b.b.b.b.b.b.~ 8.i.i.i.i.i.i.i.i.i.i.i.i.i.i.r.] > > : @ o b.b.b.b.b.b.b.b.b.b.b.b.b.b.",
"b.b.b.b.b.b.b.b.b.b.b.b.b.b.b.b.b.b.b.b.b.b.b.b.b.b.b.Q / y.i.i.i.i.i.i.i.i.i.i.i.i.i.r.8 > ; ; + b.b.b.b.b.b.b.b.b.b.b.b.b.b.b.",
"b.b.b.b.b.b.b.b.b.b.b.b.b.b.b.b.b.b.b.b.b.b.b.b.b.b.b.b.E #.y.i.i.i.i.i.i.i.i.i.i.i.i.7.< ; & & O b.b.b.b.b.b.b.b.b.b.b.b.b.b.b.",
"b.b.b.b.b.b.b.b.b.b.b.b.b.b.b.b.b.b.b.b.b.b.b.b.b.b.b.b.E / t.y.i.i.i.i.i.i.i.i.i.i.i.| 1 ; ; $ o b.b.b.b.b.b.b.b.b.b.b.b.b.b.b.",
"b.b.b.b.b.b.b.b.b.b.b.b.b.b.b.b.b.b.b.b.b.b.b.b.b.b.b.b.b.Q +.y.i.i.i.i.i.i.i.i.i.i.y.{ , ; ; $ o b.b.b.b.b.b.b.b.b.b.b.b.b.b.b.",
"b.b.b.b.b.b.b.b.b.b.b.b.b.b.b.b.b.b.b.b.b.b.b.b.b.b.b.b.b.b.Q t.i.i.i.i.i.i.i.i.i.i.y.] > > > $ X b.b.b.b.b.b.b.b.b.b.b.b.b.b.b.",
"b.b.b.b.b.b.b.b.b.b.b.b.b.b.b.b.b.b.b.b.b.b.b.b.b.b.b.b.b.b.W X.y.i.i.i.i.i.i.i.i.i.r.7 > > > O b.b.b.b.b.b.b.b.b.b.b.b.b.b.b.b.",
"b.b.b.b.b.b.b.b.b.b.b.b.b.b.b.b.b.b.b.b.b.b.b.b.b.b.b.b.b.b.b.~ *.i.i.i.i.i.i.i.i.i.t.2 : : ; o b.b.b.b.b.b.b.b.b.b.b.b.b.b.b.b.",
"b.b.b.b.b.b.b.b.b.b.b.b.b.b.b.b.b.b.b.b.b.b.b.b.b.b.b.b.b.b.b.W ` i.i.i.i.i.i.i.i.i.t.= * * & X b.b.b.b.b.b.b.b.b.b.b.b.b.b.b.b.",
"b.b.b.b.b.b.b.b.b.b.b.b.b.b.b.b.b.b.b.b.b.b.b.b.b.b.b.b.b.b.b.b.W *.i.i.i.i.i.i.i.i.5.* * * # X b.b.b.b.b.b.b.b.b.b.b.b.b.b.b.b.",
"b.b.b.b.b.b.b.b.b.b.b.b.b.b.b.b.b.b.b.b.b.b.b.b.b.b.b.b.b.b.b.b.E ( 0.i.i.i.i.i.i.i.7.9 9 9 4 3 b.b.b.b.b.b.b.b.b.b.b.b.b.b.b.b.",
"b.b.b.b.b.b.b.b.b.b.b.b.b.b.b.b.b.b.b.b.b.b.b.b.b.b.b.b.b.b.b.b.b.Q @.y.y.y.r.y.y.r.y.r.y.t.( b.b.b.b.b.b.b.b.b.b.b.b.b.b.b.b.b.",
"b.b.b.b.b.b.b.b.b.b.b.b.b.b.b.b.b.b.b.b.b.b.b.b.b.b.b.b.b.b.b.b.b.W ..*.-.-.-.-.-.-.*.-.-.#.~ b.b.b.b.b.b.b.b.b.b.b.b.b.b.b.b.b.",
"b.b.b.b.b.b.b.b.b.b.b.b.b.b.b.b.b.b.b.b.b.b.b.b.b.b.b.b.b.b.b.b.b.~ &.*.*.*.*.*.*.*.*.*.*.( W b.b.b.b.b.b.b.b.b.b.b.b.b.b.b.b.b.",
"b.b.b.b.b.b.b.b.b.b.b.b.b.b.b.b.b.b.b.b.b.b.b.b.b.b.b.b.b.b.b.b.W _ *.*.*.*.*.*.*.*.*.*.X.~ b.b.b.b.b.b.b.b.b.b.b.b.b.b.b.b.b.b.",
"b.b.b.b.b.b.b.b.b.b.b.b.b.b.b.b.b.b.b.b.b.b.b.b.b.b.b.b.b.b.b.t a $.%.%.%.%.%.%.%.%.%.%.! i b.b.b.b.b.b.b.b.b.b.b.b.b.b.b.b.b.b.",
"b.b.b.b.b.b.b.b.b.b.b.b.b.b.b.b.b.b.b.b.b.b.b.b.b.b.b.b.b.e e s c C C C C C C C D D D D z r e e b.b.b.b.b.b.b.b.b.b.b.b.b.b.b.b.",
"b.b.b.b.b.b.b.b.b.b.b.b.b.b.b.b.b.b.b.b.b.b.b.b.b.b.b.b.w s j n m n m n n n m m n n v v v x g e b.b.b.b.b.b.b.b.b.b.b.b.b.b.b.b.",
"b.b.b.b.b.b.b.b.b.b.b.b.b.b.b.b.b.b.b.b.b.b.b.b.b.b.b.b.e x n n m n m n v x x j g f d s r r e e b.b.b.b.b.b.b.b.b.b.b.b.b.b.b.b.",
"b.b.b.b.b.b.b.b.b.b.b.b.b.b.b.b.b.b.b.b.b.b.b.b.b.b.b.b.e j j g f s e e e e e e e w w b.b.b.b.b.b.b.b.b.b.b.b.b.b.b.b.b.b.b.b.b."
};
