/* XPM */
static char *player[] = {
/* columns rows colors chars-per-pixel */
"64 48 159 2 ",
"   c #4A3A53",
".  c #48425E",
"X  c #454C6A",
"o  c #474764",
"O  c #45506F",
"+  c #425575",
"@  c #BD9700",
"#  c #BE9800",
"$  c #B49D29",
"%  c #C39C00",
"&  c #CDA400",
"*  c #DAAE00",
"=  c #E4B600",
"-  c #E7B900",
";  c #EDBD01",
":  c #ECBF0B",
">  c #D6BA38",
",  c #EDC10D",
"<  c #FECB00",
"1  c #F1C101",
"2  c #F5CB19",
"3  c #F2CC25",
"4  c #E6C73D",
"5  c #EACB3B",
"6  c #ADA045",
"7  c #A7A25D",
"8  c #D4C14F",
"9  c #DAC75C",
"0  c #EACC40",
"q  c #E7D052",
"w  c #CCC36B",
"e  c #DDD16F",
"r  c #D2C775",
"t  c #DED272",
"y  c #D9C760",
"u  c #5F6C87",
"i  c #527A9C",
"p  c #606B86",
"a  c #407AA3",
"s  c #1783B2",
"d  c #1885B5",
"f  c #1A87B8",
"g  c #1B8ABB",
"h  c #358BB0",
"j  c #4E84AB",
"k  c #5796AE",
"l  c #4C98BA",
"z  c #66A3BE",
"x  c #7AA4B1",
"c  c #1D8EC0",
"v  c #1F91C3",
"b  c #2194C7",
"n  c #2D98C7",
"m  c #2399CC",
"M  c #269DD2",
"N  c #28A1D6",
"B  c #2AA5DA",
"V  c #2DABE3",
"C  c #31B3EC",
"Z  c #32B7F1",
"A  c #36BBF5",
"S  c #3BBDF5",
"D  c #36BDF8",
"F  c #549BC5",
"G  c #5FA5CC",
"H  c #41A4D6",
"J  c #42AAD7",
"K  c #5DACD5",
"L  c #6CB5DA",
"P  c #57B7E0",
"I  c #52BBEA",
"U  c #40BEF5",
"Y  c #50BFF0",
"T  c #4BB5E3",
"R  c #6BBCE3",
"E  c #46C0F5",
"W  c #4CC1F5",
"Q  c #53C4F5",
"!  c #5DC6F4",
"~  c #65C2EB",
"^  c #7BC0E1",
"/  c #6CCBF4",
"(  c #63C8F5",
")  c #74CCF3",
"_  c #7FD0F4",
"`  c #91A69D",
"'  c #8DA7AC",
"]  c #8FA9AD",
"[  c #94ADAD",
"{  c #94ADB2",
"}  c #99B2B7",
"|  c #9DB5BA",
" . c #A0B7BD",
".. c #A3B9BF",
"X. c #AAB9BC",
"o. c #B5BEBF",
"O. c #B8C7BF",
"+. c #D4CB85",
"@. c #D0CA8B",
"#. c #D6D084",
"$. c #D0CC92",
"%. c #D0D198",
"&. c #CBD0AE",
"*. c #D0D4AF",
"=. c #CBD0B0",
"-. c #A9BEC4",
";. c #A4BBC2",
":. c #AAC0C6",
">. c #A7C2CD",
",. c #ADC4CA",
"<. c #B2C7CE",
"1. c #B4CCCB",
"2. c #B9CED7",
"3. c #B4CDD8",
"4. c #B3CDD1",
"5. c #BDD4D6",
"6. c #BDD6DB",
"7. c #8BD3F2",
"8. c #95D7F3",
"9. c #9BD8F3",
"0. c #A5DCF4",
"q. c #B5E0F3",
"w. c #BDE1F1",
"e. c #CBCBCB",
"r. c #C6C9CA",
"t. c #D0CFCF",
"y. c #CCD6C4",
"u. c #CCD8CF",
"i. c #C0D1D7",
"p. c #C2D4DC",
"a. c #C3D9DD",
"s. c #C9D9DE",
"d. c #CCD8D1",
"f. c #D3D3D3",
"g. c #D4DDD5",
"h. c #D2DDDD",
"j. c #DCDBDB",
"k. c #D9D8D7",
"l. c #E0DFDE",
"z. c #C7DBE1",
"x. c #CCDDE3",
"c. c #D0DFE5",
"v. c #D0DFE9",
"b. c #D3E1E7",
"n. c #DDE3E4",
"m. c #D3E2E9",
"M. c #DBE6E9",
"N. c #C4E4F2",
"B. c #CFE8F3",
"V. c #CCE5F0",
"C. c #D5EAF3",
"Z. c #DDECF3",
"A. c #E5E5E5",
"S. c #E4EAEB",
"D. c #EBEDEE",
"F. c #EBEFF1",
"G. c #E3EEF3",
"H. c #F3F3F3",
"J. c None",
/* pixels */
"J.J.J.J.J.J.J.J.J.J.J.J.J.J.J.J.J.J.J.J.J.J.J.J.J.J.J.e.e.e.e.e.e.e.e.e.e.J.J.J.J.J.J.J.J.J.J.J.J.J.J.J.J.J.J.J.J.J.J.J.J.J.J.J.",
"J.J.J.J.J.J.J.J.J.J.J.J.J.J.J.J.J.J.J.J.J.J.J.J.J.J.J.f.A.S.A.A.A.A.A.S.f.J.J.J.J.J.J.J.J.J.J.J.J.J.J.J.J.J.J.J.J.J.J.J.J.J.J.J.",
"J.J.J.J.J.J.J.J.J.J.J.J.J.J.J.J.J.J.J.J.J.J.J.J.J.J.e.k.H.H.H.H.H.H.H.H.k.e.J.J.J.J.J.J.J.J.J.J.J.J.J.J.J.J.J.J.J.J.J.J.J.J.J.J.",
"J.J.J.J.J.J.J.J.J.J.J.J.J.J.J.J.J.J.J.J.J.J.J.J.J.J.e.j.N.8.8.8.8.9.9.w.l.e.J.J.J.J.J.J.J.J.J.J.J.J.J.J.J.J.J.J.J.J.J.J.J.J.J.J.",
"J.J.J.J.J.J.J.J.J.J.J.J.J.J.J.J.J.J.J.J.J.J.J.J.J.J.e.A._ Z A A A S Z _ A.e.J.J.J.J.J.J.J.J.J.J.J.J.J.J.J.J.J.J.J.J.J.J.J.J.J.J.",
"J.J.J.J.J.J.J.J.J.J.J.J.J.J.J.J.J.J.J.J.J.J.J.J.J.J.e.n.) Z A A A D Z ) M.e.J.J.J.J.J.J.J.J.J.J.J.J.J.J.J.J.J.J.J.J.J.J.J.J.J.J.",
"J.J.J.J.J.J.J.J.J.J.J.J.J.J.J.J.J.J.J.J.J.J.J.J.J.J.f.C.( D A A A A A ( M.t.J.J.J.J.J.J.J.J.J.J.J.J.J.J.J.J.J.J.J.J.J.J.J.J.J.J.",
"J.J.J.J.J.J.J.J.J.J.J.J.J.J.J.J.J.J.J.J.J.J.J.J.J.J.f.m.Q D A A A A A Q B.f.J.J.J.J.J.J.J.J.J.J.J.J.J.J.J.J.J.J.J.J.J.J.J.J.J.J.",
"J.J.J.J.J.J.J.J.J.J.J.J.J.J.J.J.J.J.J.J.J.J.J.J.J.r.k.V.E A A A A A A E V.k.e.J.J.J.J.J.J.J.J.J.J.J.J.J.J.J.J.J.J.J.J.J.J.J.J.J.",
"J.J.J.J.J.J.J.J.J.J.J.J.J.J.J.J.J.J.J.J.J.J.J.J.J.r.l.N.S A A A A A A S N.j.e.J.J.J.J.J.J.J.J.J.J.J.J.J.J.J.J.J.J.J.J.J.J.J.J.J.",
"J.J.J.J.J.J.J.J.J.J.J.J.J.J.J.J.J.J.J.J.J.J.J.J.J.e.j.q.S A A A A A A S q.j.e.J.J.J.J.J.J.J.J.J.J.J.J.J.J.J.J.J.J.J.J.J.J.J.J.J.",
"J.J.J.J.J.J.J.J.J.J.J.J.J.J.J.J.J.J.J.J.J.J.J.J.J.e.A.0.A A A A A A A A 0.A.e.J.J.J.J.J.J.J.J.J.J.J.J.J.J.J.J.J.J.J.J.J.J.J.J.J.",
"J.J.J.J.J.J.J.J.J.J.J.J.J.J.J.J.J.J.J.J.J.J.J.J.J.t.A.8.A A A A A A A A 8.A.t.J.J.J.J.J.J.J.J.J.J.J.J.J.J.J.J.J.J.J.J.J.J.J.J.J.",
"J.J.J.J.J.J.J.J.J.J.J.J.J.J.J.J.J.J.J.J.J.J.J.J.J.f.S._ A A A A A A A A _ S.t.J.J.J.J.J.J.J.J.J.J.J.J.J.J.J.J.J.J.J.J.J.J.J.J.J.",
"J.J.J.J.J.J.J.J.J.J.J.J.J.J.J.J.J.J.J.J.J.J.J.J.J.f.D.) A A A A A A A A ) F.f.J.J.J.J.J.J.J.J.J.J.J.J.J.J.J.J.J.J.J.J.J.J.J.J.J.",
"J.J.J.J.J.J.J.J.J.J.J.J.J.J.J.J.J.J.J.J.J.J.J.J.J.f.F.! A A A A A A A A ! F.f.e.J.J.J.J.J.J.J.J.J.J.J.J.J.J.J.J.J.J.J.J.J.J.J.J.",
"J.J.J.J.J.J.J.J.J.J.J.J.J.J.J.J.J.J.J.J.J.J.J.J.X.f.Z.Q Z A A A A A A Z Q Z.g.X.J.J.J.J.J.J.J.J.J.J.J.J.J.J.J.J.J.J.J.J.J.J.J.J.",
"J.J.J.J.J.J.J.J.J.J.J.J.J.J.J.J.J.J.J.J.J.J.] ] | h.C.W A A A A A A A A Q C.h.} ] ' J.J.J.J.J.J.J.J.J.J.J.J.J.J.J.J.J.J.J.J.J.J.",
"J.J.J.J.J.J.J.J.J.J.J.J.J.J.J.J.J.J.J.J.J.] } :.5.S.N.E A A A A A A A A U N.S.5.:.} ' J.J.J.J.J.J.J.J.J.J.J.J.J.J.J.J.J.J.J.J.J.",
"J.J.J.J.J.J.J.J.J.J.J.J.J.J.J.J.J.J.J.] } ,.p.6.6.S.q.U A A A A A A A A U q.D.6.6.p.<.{ ] J.J.J.J.J.J.J.J.J.J.J.J.J.J.J.J.J.J.J.",
"s d d s J.J.J.J.J.J.J.J.J.J.J.J.J.' { :.p.b.s.6.a.D.0.S D D A S S D A A A 0.D.a.6.x.c.p.-.{ ' J.J.J.J.J.J.J.J.J.J.J.J.J.s d d s ",
"s M B g J.J.J.J.J.J.J.J.J.J.J.' ] ..5.c.b.b.z.6.x.D.8.Y ~ ~ ~ ( ~ ~ ~ ~ Q 8.D.s.6.z.b.b.b.i...] ' J.J.J.J.J.J.J.J.J.J.J.g N M d ",
"s B A m s J.J.J.J.J.J.J.J.J.]  .2.c.b.b.b.b.a.6.x.D.7.j u u p p u u u u i 7.F.x.6.a.b.b.b.b.b.2.| ] ' J.J.J.J.J.J.J.J.d m A B s ",
"s M A C g h J.J.J.J.J.J.] } <.x.b.b.b.b.b.b.a.6.c.D.) +                 X ^ F.b.6.6.b.b.b.b.b.b.x.<.} ' J.J.J.J.J.J.h g C A M s ",
"s m A A J x ] J.J.J.' { <.s.c.b.b.b.b.b.b.b.6.6.M.G.R O                 X L G.m.6.6.b.b.b.b.b.b.b.b.s.<.{ ] J.J.J.] x J A A m d ",
"s b A A ~ ,. .{ ] { -.p.b.b.c.b.b.b.b.b.b.b.6.6.M.Z.K X                 o G Z.M.6.6.x.b.b.b.b.b.b.c.c.b.p.-.{ ] {  .,.~ Z A v s ",
"J.c C A ~ 3.3.<.-.i.c.b.b.b.b.b.b.b.b.b.b.x.6.6.S.C.F .                 . F C.S.p.6.x.b.b.b.b.b.b.b.b.b.b.c.i.-.<.2.3.~ A A c J.",
"J.g C D ~ 3.2.2.p.b.b.b.b.b.b.b.b.b.b.b.b.x.6.a.D.B.J a a a a a a a a a a B C.F.a.6.z.b.b.b.b.b.b.b.b.b.b.b.c.p.2.2.3.~ Z Z g J.",
"J.g C Z ~ 3.2.2.p.b.b.b.b.b.b.b.b.b.b.b.b.x.6.a.D.B.S D D D D D D D D D S S C.D.a.6.z.b.b.b.b.b.b.b.b.b.b.b.c.p.2.2.3.~ D C f J.",
"J.f V D ~ 3.2.2.p.c.b.b.b.b.b.b.b.b.b.b.b.x.6.a.D.B.S A A S A A A A A A S U B.D.a.6.z.b.b.b.b.b.b.b.b.b.b.b.b.p.2.2.3.~ Z V f J.",
"J.f B A ~ 3.2.2.p.b.b.b.b.b.b.b.b.b.b.b.b.x.6.a.D.B.S A A A A A A A A A S S V.F.a.6.x.b.b.b.b.b.b.b.b.b.b.b.c.p.2.2.3.~ D B f J.",
"J.d N D ~ 3.2.2.p.c.b.b.b.b.b.b.b.b.b.b.b.x.6.a.D.B.S A A A A A S A A A A S V.D.a.6.z.b.b.b.b.b.b.b.b.b.b.b.c.p.2.2.3.~ D N d J.",
"J.s M D ~ 3.2.2.p.c.b.b.b.b.b.b.b.m.m.m.b.x.6.a.D.V.S A A A A A A A A A A S C.D.a.6.z.b.b.b.b.b.b.b.b.b.b.b.v.p.2.2.3.~ A M s J.",
"J.s m Z ~ 3.2.2.p.c.x.v.v.b.b.b.b.m.m.m.b.x.6.a.D.C.S A A A A S A A A A A S B.D.a.6.z.b.b.b.b.b.b.b.b.v.c.h.c.p.2.2.3.~ A m s J.",
"J.s b Z ~ 3.2.2.p.h.+.r $.*.y.a.x.b.m.m.b.x.6.a.D.B.S A A A A A A A A A A S B.D.a.6.x.b.b.v.c.x.z.y.*.$.r +.h.p.2.2.3.~ Z b s J.",
"J.J.b C P :.3.2.p.g.4 ; : 2 3 5 9 +.=.=.u.a.6.a.D.B.S A A A A A A A A A A S B.D.a.6.a.d.y.=.@.y 5 3 2 , ; 4 g.p.2.2.>.P C v J.J.",
"J.J.g C n x  .<.p.k.4 ; ; < < < ; ; , 3 5 #.6.a.D.B.S A A A A A A A A A A S B.D.a.6.%.5 3 , ; 1 < < < ; ; 4 g.i.<. .x n V c J.J.",
"J.J.f M f k ] { ;.1.> = ; < < < ; ; 1 < < q i.a.D.B.S A A A A A A A A A A S B.D.a.6.e < < 1 ; ; < < < ; = > 1.;.{ ' k f N g J.J.",
"J.J.d f d J.J.J.] ` $ % & * = - = - 1 < < q 5.a.D.B.S S A A A S A A A A A S B.D.a.6.t < < ; - - = = * & % $ ` ] J.J.J.d f d J.J.",
"J.J.d d J.J.J.J.J.J.J.J.J.@ # % % % & * = 8 1.6.D.B.S A A A A A A A A A A S B.D.6.3.w = * & % % % # @ J.J.J.J.J.J.J.J.J.d d J.J.",
"J.J.J.J.J.J.J.J.J.J.J.J.J.J.J.J.J.J.# # # 6 [ ;.A.B.S A A A A A A A A A A S B.A.X.{ 7 # # @ J.J.J.J.J.J.J.J.J.J.J.J.J.J.J.J.J.J.",
"J.J.J.J.J.J.J.J.J.J.J.J.J.J.J.J.J.J.J.J.J.J.J.o.k.m.Q A A A A A A S A A Z Q B.k.o.J.J.J.J.J.J.J.J.J.J.J.J.J.J.J.J.J.J.J.J.J.J.J.",
"J.J.J.J.J.J.J.J.J.J.J.J.J.J.J.J.J.J.J.J.J.J.J.J.e.l.9.A A A A A A A A A S 9.j.e.J.J.J.J.J.J.J.J.J.J.J.J.J.J.J.J.J.J.J.J.J.J.J.J.",
"J.J.J.J.J.J.J.J.J.J.J.J.J.J.J.J.J.J.J.J.J.J.J.J.J.t.M./ Z D A A A A A A / M.f.J.J.J.J.J.J.J.J.J.J.J.J.J.J.J.J.J.J.J.J.J.J.J.J.J.",
"J.J.J.J.J.J.J.J.J.J.J.J.J.J.J.J.J.J.J.J.J.J.J.J.J.e.k.q.E Z A A A A A U N.k.e.J.J.J.J.J.J.J.J.J.J.J.J.J.J.J.J.J.J.J.J.J.J.J.J.J.",
"J.J.J.J.J.J.J.J.J.J.J.J.J.J.J.J.J.J.J.J.J.J.J.J.J.J.e.A.7.S A A A S D 7.A.e.J.J.J.J.J.J.J.J.J.J.J.J.J.J.J.J.J.J.J.J.J.J.J.J.J.J.",
"J.J.J.J.J.J.J.J.J.J.J.J.J.J.J.J.J.J.J.J.J.J.J.J.J.J.r.f.v.I V V V V T z.f.e.J.J.J.J.J.J.J.J.J.J.J.J.J.J.J.J.J.J.J.J.J.J.J.J.J.J.",
"J.J.J.J.J.J.J.J.J.J.J.J.J.J.J.J.J.J.J.J.J.J.J.J.J.J.J.e.e.z s d d d l r.r.J.J.J.J.J.J.J.J.J.J.J.J.J.J.J.J.J.J.J.J.J.J.J.J.J.J.J."
};
