/* XPM */
static char *player_right[] = {
/* columns rows colors chars-per-pixel */
"64 64 144 2 ",
"   c #4A3C55",
".  c #5B637E",
"X  c #BE9700",
"o  c #BE9800",
"O  c #C39D00",
"+  c #C7A000",
"@  c #CEA400",
"#  c #D1A700",
"$  c #D4AA00",
"%  c #DAAF01",
"&  c #DFB301",
"*  c #ECBD02",
"=  c #E6BF19",
"-  c #EFC30E",
";  c #F3C301",
":  c #F9C701",
">  c #FFCC00",
",  c #EEC310",
"<  c #DEC23D",
"1  c #E3C025",
"2  c #E6C83C",
"3  c #A99E49",
"4  c #B7AE5E",
"5  c #9CA377",
"6  c #DDC240",
"7  c #E0CD5F",
"8  c #DCCA60",
"9  c #DECE73",
"0  c #43668A",
"q  c #557192",
"w  c #1783B3",
"e  c #1884B4",
"r  c #1C8BBD",
"t  c #2C89B2",
"y  c #358FB7",
"u  c #4D93BD",
"i  c #5897B0",
"p  c #5299BD",
"a  c #6D9FB2",
"s  c #1E8FC1",
"d  c #2092C5",
"f  c #2296C9",
"g  c #249ACF",
"h  c #3D90C0",
"j  c #279FD4",
"k  c #28A1D6",
"l  c #2CA9DF",
"z  c #3CABDB",
"x  c #2DACE3",
"c  c #36ACE0",
"v  c #32B3EB",
"b  c #34B7F0",
"n  c #36BBF5",
"m  c #3ABCF5",
"M  c #4FA4D1",
"N  c #5AAFDA",
"B  c #63B6DE",
"V  c #40B0E2",
"C  c #54BEEB",
"Z  c #59B6E3",
"A  c #45BFF5",
"S  c #65BFEA",
"D  c #57C0ED",
"F  c #4CC1F4",
"G  c #53C3F4",
"H  c #58C5F4",
"J  c #6BC2EA",
"K  c #62C1EC",
"L  c #65C9F4",
"P  c #6DCBF4",
"I  c #61C7F4",
"U  c #75CDF4",
"Y  c #7FD0F4",
"T  c #95A592",
"R  c #B5B883",
"E  c #8DA7AB",
"W  c #8EA8AD",
"Q  c #90A9AE",
"!  c #86ADBB",
"~  c #93ACB2",
"^  c #97B1B6",
"/  c #9AB2B7",
"(  c #9DB5BB",
")  c #AEBCA4",
"_  c #A2B9BF",
"`  c #A4B5B8",
"'  c #D5CE84",
"]  c #D6CF88",
"[  c #D3D392",
"{  c #CECFA1",
"}  c #CED1AC",
"|  c #C9D3B6",
" . c #CBD2B9",
".. c #A4BCC2",
"X. c #AABFC4",
"o. c #B3BFC1",
"O. c #A8C1C6",
"+. c #AEC5CB",
"@. c #B0C4C9",
"#. c #B3C8CF",
"$. c #AAC9D6",
"%. c #AECCD9",
"&. c #B4CCD2",
"*. c #B9CED6",
"=. c #BED2D6",
"-. c #BDD5DB",
";. c #82D1F4",
":. c #89D3F3",
">. c #96D7F3",
",. c #99D8F3",
"<. c #A7DCF3",
"1. c #B3DFF3",
"2. c #B3E0F3",
"3. c #BDE2F2",
"4. c #C6C8C8",
"5. c #CBCBCB",
"6. c #C4D3CC",
"7. c #CDD8CF",
"8. c #C2D7DD",
"9. c #C4D9DE",
"0. c #C8D8DE",
"q. c #CAD8D6",
"w. c #D4D4D4",
"e. c #DCDCDC",
"r. c #CCDDE2",
"t. c #C7DBE1",
"y. c #D0DFE5",
"u. c #DEDFE0",
"i. c #D3E1E7",
"p. c #DBE1E3",
"a. c #DCE6E8",
"s. c #DFEAEE",
"d. c #C3E4F3",
"f. c #C9E6F2",
"g. c #D5E9F2",
"h. c #DBEBF2",
"j. c #E4E4E4",
"k. c #E1E7E9",
"l. c #E3EAEC",
"z. c #ECEDED",
"x. c #EBEFF1",
"c. c #EDF0F0",
"v. c #F2F2F2",
"b. c None",
/* pixels */
"b.b.b.b.b.b.b.b.b.b.b.b.b.b.b.b.b.b.b.b.b.w w e e e w e e r s f g j j e b.b.b.b.b.b.b.b.b.b.b.b.b.b.b.b.b.b.b.b.b.b.b.b.b.b.b.b.",
"b.b.b.b.b.b.b.b.b.b.b.b.b.b.b.b.e e r s s d d j j l x v n n n n n n x w b.b.b.b.b.b.b.b.b.b.b.b.b.b.b.b.b.b.b.b.b.b.b.b.b.b.b.b.",
"b.b.b.b.b.b.b.b.b.b.b.b.b.b.b.b.e g x v v b n m n n n n n n n n n j s w b.b.b.b.b.b.b.b.b.b.b.b.b.b.b.b.b.b.b.b.b.b.b.b.b.b.b.b.",
"b.b.b.b.b.b.b.b.b.b.b.b.b.b.b.b.e e r z C D C D D D D D C C C z s w w b.b.b.b.b.b.b.b.b.b.b.b.b.b.b.b.b.b.b.b.b.b.b.b.b.b.b.b.b.",
"b.b.b.b.b.b.b.b.b.b.b.b.b.b.b.b.b.b.p ! %.%.%.%.%.%.%.%.%.%.$.a t b.b.b.b.b.b.b.b.b.b.b.b.b.b.b.b.b.b.b.b.b.b.b.b.b.b.b.b.b.b.b.",
"b.b.b.b.b.b.b.b.b.b.b.b.b.b.b.b.b.b.~ @.*.*.*.*.*.*.*.*.*.*...W b.b.b.b.b.b.b.b.b.b.b.b.b.b.b.b.b.b.b.b.b.b.b.b.b.b.b.b.b.b.b.b.",
"b.b.b.b.b.b.b.b.b.b.b.b.b.b.b.b.b.~ ( *.*.*.*.*.*.*.*.*.*.#.^ b.b.b.b.b.b.b.b.b.b.b.b.b.b.b.b.b.b.b.b.b.b.b.b.b.b.b.b.b.b.b.b.b.",
"b.b.b.b.b.b.b.b.b.b.b.b.b.b.b.b.b.^ X.-.*.-.-.-.-.-.-.*.-...E b.b.b.b.b.b.b.b.b.b.b.b.b.b.b.b.b.b.b.b.b.b.b.b.b.b.b.b.b.b.b.b.b.",
"b.b.b.b.b.b.b.b.b.b.b.b.b.b.b.b.b.( t.r.r.r.y.y.r.r.i.r.r.@.Q b.b.b.b.b.b.b.b.b.b.b.b.b.b.b.b.b.b.b.b.b.b.b.b.b.b.b.b.b.b.b.b.b.",
"b.b.b.b.b.b.b.b.b.b.b.b.b.b.b.b.3 4 9 9 9 7.y.i.i.i.i.i.i.r.( W b.b.b.b.b.b.b.b.b.b.b.b.b.b.b.b.b.b.b.b.b.b.b.b.b.b.b.b.b.b.b.b.",
"b.b.b.b.b.b.b.b.b.b.b.b.b.b.b.b.o # * * * 6.y.i.i.i.i.i.i.i.&.Q b.b.b.b.b.b.b.b.b.b.b.b.b.b.b.b.b.b.b.b.b.b.b.b.b.b.b.b.b.b.b.b.",
"b.b.b.b.b.b.b.b.b.b.b.b.b.b.b.b.o & * ; , t.y.y.i.i.i.i.i.i.i.( W b.b.b.b.b.b.b.b.b.b.b.b.b.b.b.b.b.b.b.b.b.b.b.b.b.b.b.b.b.b.b.",
"b.b.b.b.b.b.b.b.b.b.b.b.b.b.b.b.o ; : : 2 0.i.i.i.i.i.i.i.i.i.=.~ b.b.b.b.b.b.b.b.b.b.b.b.b.b.b.b.b.b.b.b.b.b.b.b.b.b.b.b.b.b.b.",
"b.b.b.b.b.b.b.b.b.b.b.b.b.b.b.b.+ > > > 7 i.i.i.i.i.i.i.i.i.i.i.X.W b.b.b.b.b.b.b.b.b.b.b.b.b.b.b.b.b.b.b.b.b.b.b.b.b.b.b.b.b.b.",
"b.b.b.b.b.b.b.b.b.b.b.b.b.b.b.X $ > > > ' i.i.i.i.i.i.i.i.i.i.i.0.Q b.b.b.b.b.b.b.b.b.b.b.b.b.b.b.b.b.b.b.b.b.b.b.b.b.b.b.b.b.b.",
"b.b.b.b.b.b.b.b.b.b.b.b.b.b.b.o $ ; ; - { i.i.i.i.i.i.i.i.i.i.i.i.+.W b.b.b.b.b.b.b.b.b.b.b.b.b.b.b.b.b.b.b.b.b.b.b.b.b.b.b.b.b.",
"b.b.b.b.b.b.b.b.b.b.b.b.b.b.b.o % * * 1  .i.i.i.i.i.i.i.i.i.i.i.i.0./ E b.b.b.b.b.b.b.b.b.b.b.b.b.b.b.b.b.b.b.b.b.b.b.b.b.b.b.b.",
"b.b.b.b.b.b.b.b.b.b.b.b.b.b.b.O & * * < q.i.i.i.i.i.i.i.i.i.i.i.i.i.&.W b.b.b.b.b.b.b.b.b.b.b.b.b.b.b.b.b.b.b.b.b.b.b.b.b.b.b.b.",
"b.b.b.b.b.b.b.b.b.b.b.b.b.b.b.+ * : : 8 r.i.i.i.i.i.i.i.i.i.i.i.i.i.y./ W b.b.b.b.b.b.b.b.b.b.b.b.b.b.b.b.b.b.b.b.b.b.b.b.b.b.b.",
"b.b.b.b.b.b.b.b.b.b.b.b.b.b.o @ : > > ' r.i.i.i.i.i.i.i.i.i.i.i.i.i.i.=.~ b.b.b.b.b.b.b.b.b.b.b.b.b.b.b.b.b.b.b.b.b.b.b.b.b.b.b.",
"b.b.b.b.b.b.b.b.b.b.b.b.b.b.O $ > > > } y.i.i.i.i.i.i.i.i.i.i.i.i.y.i.r._ W b.b.b.b.b.b.b.b.b.b.b.b.b.b.b.b.b.b.b.b.b.b.b.b.b.b.",
"b.b.b.b.b.b.b.b.b.b.b.b.b.b.5 R [ [ [ =.0.9.t.9.9.9.9.9.9.t.r.r.y.y.i.y.0.Q b.b.b.b.b.b.b.b.b.b.b.b.b.b.b.b.b.b.b.b.b.b.b.b.b.b.",
"b.b.b.b.b.b.b.b.b.b.b.b.b.b.Q @.-.-.-.-.-.-.-.-.-.-.-.-.-.-.-.-.-.9.0.9.t...W b.b.b.b.b.b.b.b.b.b.b.b.b.b.b.b.b.b.b.b.b.b.b.b.b.",
"b.b.b.b.b.b.b.b.b.b.b.b.b.5._ 0.r.r.r.r.r.t.t.t.r.t.r.r.t.t.9.-.-.-.-.-.-.&./ Q b.b.b.b.b.b.b.b.b.b.b.b.b.b.b.b.b.b.b.b.b.b.b.b.",
"b.b.b.b.b.b.b.b.b.b.b.5.5.w.j.c.c.c.c.c.c.c.c.c.c.c.c.c.c.z.l.s.a.i.r.9.-.-.O.` 5.5.b.b.b.b.b.b.b.b.b.b.b.b.b.b.b.b.b.b.b.b.b.b.",
"b.b.b.b.b.b.b.b.b.b.5.w.u.f.2.2.2.2.2.2.2.2.2.2.2.2.2.2.2.d.f.g.h.x.v.v.v.c.l.p.u.w.w.w.w.5.5.5.5.b.b.b.b.b.b.b.b.b.b.b.b.b.b.b.",
"b.b.b.b.b.b.b.b.5.5.e.a.<.F n n n n n n n n n n n n n n y p M C I P U :.>.2.f.h.x.v.z.z.j.z.j.e.e.w.5.5.5.5.5.5.b.b.b.b.b.b.b.b.",
"b.b.b.b.b.b.b.5.w.k.3.G n n n n n n n n n n n n n n n n 0         q K n n n n n n A G U ;.>.<.1.d.f.g.s.k.j.j.w.5.b.b.b.b.b.b.b.",
"b.b.b.b.b.b.b.5.u.;.A n n n n n n n n n n n n n n n n n 0         . J n n n n n n n n n n n n m A F H L P f.v.j.5.b.b.b.b.b.b.b.",
"b.b.b.b.b.b.b.p c n n n n n n n n n n n n n n n n n n n 0         . J n n n n n n n n n n n n n n n n n n 1.v.j.5.b.b.b.b.b.b.b.",
"b.b.b.b.b.b.b.e x n n n n n n n n n n n n n n n n n n n 0         . J n n n n n n n n n n n n n n n n n n 2.v.j.5.b.b.b.b.b.b.b.",
"b.b.b.b.b.b.b.e l m n n n n n n n n n n n n n n n n n n 0         . J n n n n n n n n n n n n n n n n n n 2.v.j.5.b.b.b.b.b.b.b.",
"b.b.b.b.b.b.b.e l n n n n n n n n n n n n n n n n n n n 0         . J n n n n n n n n n n n n n n n n n n 2.v.j.5.b.b.b.b.b.b.b.",
"b.b.b.b.b.b.b.e l n n n n n n n n n n n n n n n n n n n 0         . J n n n n n n n n n n n n n n n n n n 2.v.j.5.b.b.b.b.b.b.b.",
"b.b.b.b.b.b.b.y x n n n n n n n n n n n n n n n n n n n 0         . J n n n n n n n n n n n n n n n n n m 2.v.j.5.b.b.b.b.b.b.b.",
"b.b.b.b.b.b.b.5.p.Y F n n n n n n n n n n n n n n n n n 0         . J n n n n n n n n n n n n m F G H L P f.v.j.5.b.b.b.b.b.b.b.",
"b.b.b.b.b.b.b.5.w.a.3.G n n n n n n n n n n n n n n n n 0         . J n n n n n m F G P ;.,.<.2.3.f.h.s.s.j.e.w.5.b.b.b.b.b.b.b.",
"b.b.b.b.b.b.b.b.5.5.e.k.<.F n n n n n n n n n n n n n n y p p N B L U :.,.2.f.h.c.v.c.z.z.j.j.u.e.w.5.5.5.5.5.5.b.b.b.b.b.b.b.b.",
"b.b.b.b.b.b.b.b.b.b.5.w.j.f.2.2.2.2.2.2.2.2.2.2.2.2.2.2.2.3.f.g.s.x.v.v.v.c.l.p.e.w.w.w.5.5.5.5.4.5.b.b.b.b.b.b.b.b.b.b.b.b.b.b.",
"b.b.b.b.b.b.b.b.b.b.b.4.5.w.j.z.c.c.c.c.c.c.c.c.c.c.c.c.c.x.l.l.a.i.r.9.-.-.O.` 5.5.5.b.b.b.b.b.b.b.b.b.b.b.b.b.b.b.b.b.b.b.b.b.",
"b.b.b.b.b.b.b.b.b.b.b.b.b.4.@.q.r.t.r.r.r.r.t.r.t.r.r.r.t.t.9.-.-.9.-.-.-.*.^ Q b.b.b.b.b.b.b.b.b.b.b.b.b.b.b.b.b.b.b.b.b.b.b.b.",
"b.b.b.b.b.b.b.b.b.b.b.b.b.b.W +.-.-.-.-.-.-.-.-.-.-.-.-.-.-.-.-.-.-.9.9.9...W b.b.b.b.b.b.b.b.b.b.b.b.b.b.b.b.b.b.b.b.b.b.b.b.b.",
"b.b.b.b.b.b.b.b.b.b.b.b.b.b.T ) | | | -.9.9.9.-.8.-.8.9.-.t.t.r.r.r.y.i.0.Q W b.b.b.b.b.b.b.b.b.b.b.b.b.b.b.b.b.b.b.b.b.b.b.b.b.",
"b.b.b.b.b.b.b.b.b.b.b.b.b.b.o $ > > > } r.i.i.i.i.i.i.i.i.i.i.i.i.i.i.r._ W b.b.b.b.b.b.b.b.b.b.b.b.b.b.b.b.b.b.b.b.b.b.b.b.b.b.",
"b.b.b.b.b.b.b.b.b.b.b.b.b.b.o # : > : [ r.i.i.i.i.i.i.i.i.i.i.i.i.i.i.=.~ b.b.b.b.b.b.b.b.b.b.b.b.b.b.b.b.b.b.b.b.b.b.b.b.b.b.b.",
"b.b.b.b.b.b.b.b.b.b.b.b.b.b.b.+ ; : ; 8 r.i.i.i.i.i.i.i.i.i.i.i.i.i.r./ W b.b.b.b.b.b.b.b.b.b.b.b.b.b.b.b.b.b.b.b.b.b.b.b.b.b.b.",
"b.b.b.b.b.b.b.b.b.b.b.b.b.b.b.o % ; ; 6 q.i.i.i.i.i.i.i.i.i.i.i.i.i.&.W b.b.b.b.b.b.b.b.b.b.b.b.b.b.b.b.b.b.b.b.b.b.b.b.b.b.b.b.",
"b.b.b.b.b.b.b.b.b.b.b.b.b.b.b.o $ ; ; 1 | i.i.i.i.i.i.i.i.i.i.i.i.t.( E b.b.b.b.b.b.b.b.b.b.b.b.b.b.b.b.b.b.b.b.b.b.b.b.b.b.b.b.",
"b.b.b.b.b.b.b.b.b.b.b.b.b.b.b.o $ ; ; , { i.i.i.i.i.i.i.i.i.i.i.i.+.Q b.b.b.b.b.b.b.b.b.b.b.b.b.b.b.b.b.b.b.b.b.b.b.b.b.b.b.b.b.",
"b.b.b.b.b.b.b.b.b.b.b.b.b.b.b.X # > > > ' i.i.i.i.i.i.i.i.i.i.i.t.Q b.b.b.b.b.b.b.b.b.b.b.b.b.b.b.b.b.b.b.b.b.b.b.b.b.b.b.b.b.b.",
"b.b.b.b.b.b.b.b.b.b.b.b.b.b.b.b.O > > > 8 y.i.i.i.i.i.i.i.i.i.i.X.W b.b.b.b.b.b.b.b.b.b.b.b.b.b.b.b.b.b.b.b.b.b.b.b.b.b.b.b.b.b.",
"b.b.b.b.b.b.b.b.b.b.b.b.b.b.b.b.o ; : : 2 t.i.i.i.i.i.i.i.i.i.*.~ b.b.b.b.b.b.b.b.b.b.b.b.b.b.b.b.b.b.b.b.b.b.b.b.b.b.b.b.b.b.b.",
"b.b.b.b.b.b.b.b.b.b.b.b.b.b.b.b.X & * * = t.y.y.i.i.i.i.i.i.i.` W b.b.b.b.b.b.b.b.b.b.b.b.b.b.b.b.b.b.b.b.b.b.b.b.b.b.b.b.b.b.b.",
"b.b.b.b.b.b.b.b.b.b.b.b.b.b.b.b.o $ * * * 5.i.y.i.i.i.i.i.i.&.E b.b.b.b.b.b.b.b.b.b.b.b.b.b.b.b.b.b.b.b.b.b.b.b.b.b.b.b.b.b.b.b.",
"b.b.b.b.b.b.b.b.b.b.b.b.b.b.b.b.3 4 9 9 9 w.y.y.i.i.i.i.i.t._ E b.b.b.b.b.b.b.b.b.b.b.b.b.b.b.b.b.b.b.b.b.b.b.b.b.b.b.b.b.b.b.b.",
"b.b.b.b.b.b.b.b.b.b.b.b.b.b.b.b.b.( t.y.y.y.y.r.y.y.r.y.y.@.W b.b.b.b.b.b.b.b.b.b.b.b.b.b.b.b.b.b.b.b.b.b.b.b.b.b.b.b.b.b.b.b.b.",
"b.b.b.b.b.b.b.b.b.b.b.b.b.b.b.b.b.~ &.*.-.-.-.-.-.*.-.-.-...W b.b.b.b.b.b.b.b.b.b.b.b.b.b.b.b.b.b.b.b.b.b.b.b.b.b.b.b.b.b.b.b.b.",
"b.b.b.b.b.b.b.b.b.b.b.b.b.b.b.b.b.W / *.*.*.*.*.*.*.*.*.*.&.~ b.b.b.b.b.b.b.b.b.b.b.b.b.b.b.b.b.b.b.b.b.b.b.b.b.b.b.b.b.b.b.b.b.",
"b.b.b.b.b.b.b.b.b.b.b.b.b.b.b.b.b.b.W @.*.*.*.*.*.*.*.*.*.*.( W b.b.b.b.b.b.b.b.b.b.b.b.b.b.b.b.b.b.b.b.b.b.b.b.b.b.b.b.b.b.b.b.",
"b.b.b.b.b.b.b.b.b.b.b.b.b.b.b.b.b.b.i ! %.%.%.%.%.%.%.%.%.%.$.a t b.b.b.b.b.b.b.b.b.b.b.b.b.b.b.b.b.b.b.b.b.b.b.b.b.b.b.b.b.b.b.",
"b.b.b.b.b.b.b.b.b.b.b.b.b.b.b.b.w e r z C C C C C C C C C C D z r e w b.b.b.b.b.b.b.b.b.b.b.b.b.b.b.b.b.b.b.b.b.b.b.b.b.b.b.b.b.",
"b.b.b.b.b.b.b.b.b.b.b.b.b.b.b.b.e j x v b b m n n n m m n n m n n k r w b.b.b.b.b.b.b.b.b.b.b.b.b.b.b.b.b.b.b.b.b.b.b.b.b.b.b.b.",
"b.b.b.b.b.b.b.b.b.b.b.b.b.b.b.b.e e r s s d f g j x v v n n n n n n x e b.b.b.b.b.b.b.b.b.b.b.b.b.b.b.b.b.b.b.b.b.b.b.b.b.b.b.b.",
"b.b.b.b.b.b.b.b.b.b.b.b.b.b.b.b.b.b.b.b.b.w w e w e e e w r r f g k k e b.b.b.b.b.b.b.b.b.b.b.b.b.b.b.b.b.b.b.b.b.b.b.b.b.b.b.b."
};
