/* XPM */
static char *player_down[] = {
/* columns rows colors chars-per-pixel */
"64 64 144 2 ",
"   c #4A3C55",
".  c #5B637E",
"X  c #BE9700",
"o  c #BE9800",
"O  c #C39D00",
"+  c #C7A000",
"@  c #CEA400",
"#  c #D1A700",
"$  c #D4AA00",
"%  c #DAAF01",
"&  c #DFB301",
"*  c #ECBD02",
"=  c #E6BF19",
"-  c #EFC30E",
";  c #F3C301",
":  c #F9C701",
">  c #FFCC00",
",  c #EEC310",
"<  c #DEC23D",
"1  c #E3C025",
"2  c #E6C83C",
"3  c #A99E49",
"4  c #B7AE5E",
"5  c #9CA377",
"6  c #DDC240",
"7  c #E0CD5F",
"8  c #DCCA60",
"9  c #DECE73",
"0  c #43668A",
"q  c #557192",
"w  c #1783B3",
"e  c #1884B4",
"r  c #1C8BBD",
"t  c #2C89B2",
"y  c #358FB7",
"u  c #4D93BD",
"i  c #5897B0",
"p  c #5299BD",
"a  c #6D9FB2",
"s  c #1E8FC1",
"d  c #2092C5",
"f  c #2296C9",
"g  c #249ACF",
"h  c #3D90C0",
"j  c #279FD4",
"k  c #28A1D6",
"l  c #2CA9DF",
"z  c #3CABDB",
"x  c #2DACE3",
"c  c #36ACE0",
"v  c #32B3EB",
"b  c #34B7F0",
"n  c #36BBF5",
"m  c #3ABCF5",
"M  c #4FA4D1",
"N  c #5AAFDA",
"B  c #63B6DE",
"V  c #40B0E2",
"C  c #54BEEB",
"Z  c #59B6E3",
"A  c #45BFF5",
"S  c #65BFEA",
"D  c #57C0ED",
"F  c #4CC1F4",
"G  c #53C3F4",
"H  c #58C5F4",
"J  c #6BC2EA",
"K  c #62C1EC",
"L  c #65C9F4",
"P  c #6DCBF4",
"I  c #61C7F4",
"U  c #75CDF4",
"Y  c #7FD0F4",
"T  c #95A592",
"R  c #B5B883",
"E  c #8DA7AB",
"W  c #8EA8AD",
"Q  c #90A9AE",
"!  c #86ADBB",
"~  c #93ACB2",
"^  c #97B1B6",
"/  c #9AB2B7",
"(  c #9DB5BB",
")  c #AEBCA4",
"_  c #A2B9BF",
"`  c #A4B5B8",
"'  c #D5CE84",
"]  c #D6CF88",
"[  c #D3D392",
"{  c #CECFA1",
"}  c #CED1AC",
"|  c #C9D3B6",
" . c #CBD2B9",
".. c #A4BCC2",
"X. c #AABFC4",
"o. c #B3BFC1",
"O. c #A8C1C6",
"+. c #AEC5CB",
"@. c #B0C4C9",
"#. c #B3C8CF",
"$. c #AAC9D6",
"%. c #AECCD9",
"&. c #B4CCD2",
"*. c #B9CED6",
"=. c #BED2D6",
"-. c #BDD5DB",
";. c #82D1F4",
":. c #89D3F3",
">. c #96D7F3",
",. c #99D8F3",
"<. c #A7DCF3",
"1. c #B3DFF3",
"2. c #B3E0F3",
"3. c #BDE2F2",
"4. c #C6C8C8",
"5. c #CBCBCB",
"6. c #C4D3CC",
"7. c #CDD8CF",
"8. c #C2D7DD",
"9. c #C4D9DE",
"0. c #C8D8DE",
"q. c #CAD8D6",
"w. c #D4D4D4",
"e. c #DCDCDC",
"r. c #CCDDE2",
"t. c #C7DBE1",
"y. c #D0DFE5",
"u. c #DEDFE0",
"i. c #D3E1E7",
"p. c #DBE1E3",
"a. c #DCE6E8",
"s. c #DFEAEE",
"d. c #C3E4F3",
"f. c #C9E6F2",
"g. c #D5E9F2",
"h. c #DBEBF2",
"j. c #E4E4E4",
"k. c #E1E7E9",
"l. c #E3EAEC",
"z. c #ECEDED",
"x. c #EBEFF1",
"c. c #EDF0F0",
"v. c #F2F2F2",
"b. c None",
/* pixels */
"b.b.b.b.b.b.b.b.b.b.b.b.b.b.b.b.b.b.b.b.b.b.b.b.b.b.b.b.b.b.b.b.b.b.b.b.b.b.b.b.b.b.b.b.b.b.b.b.b.b.b.b.b.b.b.b.b.b.b.b.b.b.b.b.",
"b.b.b.b.b.b.b.b.b.b.b.b.b.b.b.b.b.b.b.b.b.b.b.b.b.b.b.b.b.b.b.b.b.b.b.b.b.b.b.b.b.b.b.b.b.b.b.b.b.b.b.b.b.b.b.b.b.b.b.b.b.b.b.b.",
"b.b.b.b.b.b.b.b.b.b.b.b.b.b.b.b.b.b.b.b.b.b.b.b.b.b.b.b.b.b.b.b.b.b.b.b.b.b.b.b.b.b.b.b.b.b.b.b.b.b.b.b.b.b.b.b.b.b.b.b.b.b.b.b.",
"b.b.b.b.b.b.b.b.b.b.b.b.b.b.b.b.b.b.b.b.b.b.b.b.b.b.b.b.b.b.b.b.b.b.b.b.b.b.b.b.b.b.b.b.b.b.b.b.b.b.b.b.b.b.b.b.b.b.b.b.b.b.b.b.",
"b.b.b.b.b.b.b.b.b.b.b.b.b.b.b.b.b.b.b.b.b.b.b.b.b.b.b.b.b.b.b.b.b.b.b.b.b.b.b.b.b.b.b.b.b.b.b.b.b.b.b.b.b.b.b.b.b.b.b.b.b.b.b.b.",
"b.b.b.b.b.b.b.b.b.b.b.b.b.b.b.b.b.b.b.b.b.b.b.b.b.b.b.b.b.b.b.b.b.b.b.b.b.b.b.b.b.b.b.b.b.b.b.b.b.b.b.b.b.b.b.b.b.b.b.b.b.b.b.b.",
"b.b.b.b.b.b.b.b.b.b.b.b.b.b.b.b.b.b.b.b.b.b.b.b.b.b.b.b.b.b.b.b.b.b.b.b.b.b.b.b.b.b.b.b.b.b.b.b.b.b.b.b.b.b.b.b.b.b.b.b.b.b.b.b.",
"b.b.b.b.b.b.b.b.b.b.b.b.b.b.b.b.b.b.b.b.b.b.b.b.b.b.b.5.5.y e e e e p 5.5.b.b.b.b.b.b.b.b.b.b.b.b.b.b.b.b.b.b.b.b.b.b.b.b.b.b.b.",
"b.b.b.b.b.b.b.b.b.b.b.b.b.b.b.b.b.b.b.b.b.b.b.b.b.b.5.7.p.c x x l l V p.w.5.b.b.b.b.b.b.b.b.b.b.b.b.b.b.b.b.b.b.b.b.b.b.b.b.b.b.",
"b.b.b.b.b.b.b.b.b.b.b.b.b.b.b.b.b.b.b.b.b.b.b.b.b.b.5.l.Y n n n n n n ;.a.5.b.b.b.b.b.b.b.b.b.b.b.b.b.b.b.b.b.b.b.b.b.b.b.b.b.b.",
"b.b.b.b.b.b.b.b.b.b.b.b.b.b.b.b.b.b.b.b.b.b.b.b.b.5.7.3.F n n n n n n F 3.e.5.b.b.b.b.b.b.b.b.b.b.b.b.b.b.b.b.b.b.b.b.b.b.b.b.b.",
"b.b.b.b.b.b.b.b.b.b.b.b.b.b.b.b.b.b.b.b.b.b.b.b.5.w.s.G n n n n n n n n G k.w.5.b.b.b.b.b.b.b.b.b.b.b.b.b.b.b.b.b.b.b.b.b.b.b.b.",
"b.b.b.b.b.b.b.b.b.b.b.b.b.b.b.b.b.b.b.b.b.b.b.b.5.j.<.n n n n n n n n n n ,.j.5.b.b.b.b.b.b.b.b.b.b.b.b.b.b.b.b.b.b.b.b.b.b.b.b.",
"b.b.b.b.b.b.b.b.b.b.b.b.b.b.b.b.b.b.b.b.b.b.b.4.w.f.F n n n n n n n n n n F f.w.4.b.b.b.b.b.b.b.b.b.b.b.b.b.b.b.b.b.b.b.b.b.b.b.",
"b.b.b.b.b.b.b.b.b.b.b.b.b.b.b.b.b.b.b.o o T E o.j.2.n n n n n n n n n n n m 2.j.o.E 5 o o b.b.b.b.b.b.b.b.b.b.b.b.b.b.b.b.b.b.b.",
"b.b.b.b.b.b.b.b.b.b.b.b.b.b.X o o O + @ $ ) +.8.c.2.n n n n n n n n n n n n 2.c.8.+.R $ @ + O o o X b.b.b.b.b.b.b.b.b.b.b.b.b.b.",
"b.e w w b.b.b.b.b.3 O X X O # $ % * * : > | -.r.c.2.n n n n n n n n n n n n 2.c.r.-.[ > : * & & $ # O o X X 3 b.b.b.b.b.e w w b.",
"b.e g w b.b.E ~ / 4 # * ; : > * * * ; > > | -.r.c.2.n n n n n n n n n n n n 2.c.r.-.[ > > ; * * ; > > ; * # 4 ^ ~ W b.b.e j e b.",
"b.r x r i W ( #.t.9 * * : > > ; * * ; > > | -.t.c.2.n n n n n n n n n n n n 2.c.t.-.[ > > : * * ; > > : * * 9 0.#./ W i r x r b.",
"b.s v z ! +.*.-.y.9 * * : > > , 1 6 8 ] } =.-.r.c.2.n n n n n n n n n n n n 2.c.r.-.6.} ' 8 < 1 - > > : * * 9 y.-.*.+.! z v s b.",
"b.s b C $.*.*.-.y.9 * = 2 7 ] } | 9.r.r.y.-.-.r.c.2.n n n n n n n n n n n n 2.c.t.-.9.y.y.r.q.| { ' 7 2 = * 9 y.-.*.*.%.C v s b.",
"w d n C %.*.*.-.y.w.6.t.r.y.y.i.i.i.i.i.i.-.-.r.c.2.n n n n n n n n n n n n 2.x.r.-.9.i.i.i.i.i.i.i.r.t.0.6.7.r.*.*.*.%.C b d w ",
"w f n C %.*.*.-.y.y.y.g.y.y.i.i.i.i.i.i.y.9.-.r.c.2.n n n n n n n n n n n n 2.c.r.-.9.i.i.i.i.i.i.i.i.i.y.y.i.y.8.*.*.%.C n f w ",
"w j m C %.*.*.*.y.y.y.u.y.y.i.i.i.i.i.i.i.9.-.r.c.2.n n n n n n n n n n n n 2.c.r.-.9.i.i.i.i.i.i.i.i.i.i.i.i.y.-.*.*.%.C n j e ",
"w j n C %.*.*.-.y.y.i.i.i.i.i.i.i.i.i.i.i.-.-.r.c.2.n n n n n n n n n n n n 2.c.t.-.9.i.i.i.i.i.i.i.i.i.i.i.y.y.*.*.*.%.C m j e ",
"w x m C %.*.*.-.y.y.i.i.i.i.i.i.i.i.i.i.i.9.-.r.c.2.n n n n n n n n n n n n 2.c.r.-.9.i.i.i.i.i.i.i.i.i.i.i.i.y.8.*.*.%.C m x e ",
"w x m C %.*.*.*.y.i.i.i.i.i.i.i.i.i.i.i.i.-.-.r.c.2.n n n n n n n n n n n n 2.x.t.-.t.i.i.i.i.i.i.i.i.i.i.i.y.y.*.*.*.%.C n x e ",
"w b m C %.*.*.-.y.i.i.i.i.i.i.i.i.i.i.i.i.9.-.t.c.2.n n n n n n n n n n n n 2.c.t.-.t.i.i.i.i.i.a.i.i.i.i.i.y.r.-.*.*.%.C n v e ",
"e n m C %.-.*.-.y.y.y.y.a.y.i.i.i.i.i.i.i.9.-.t.c.2.y 0 0 0 0 0 0 0 0 0 0 h 2.x.t.-.t.i.i.i.i.i.y.i.i.i.y.i.i.y.8.*.*.%.C m n e ",
"e m m C %.*.&...X.r.y.y.i.y.i.a.i.i.i.i.i.9.-.9.c.3.u                     p 3.x.t.-.t.i.i.i.i.i.y.i.i.i.y.y.r.@...X.*.%.C m n s ",
"s n n C $._ ~ W ~ ..#.y.i.y.y.y.i.i.i.i.i.t.-.9.s.f.p                     M f.s.t.-.y.i.i.i.y.y.y.y.i.i.y.*.( ~ ~ ~ ..$.C n n s ",
"f n n c a E b.b.b.W E _ 8.y.y.y.i.i.i.i.i.r.-.9.l.g.N                     Z g.l.-.-.y.i.i.i.a.y.y.y.y.8._ W W b.b.b.E a c n n d ",
"g n n r t b.b.b.b.b.b.Q Q O.0.i.i.i.i.i.i.r.-.-.a.h.B                     I h.a.-.-.y.i.i.i.i.i.i.0.O.Q W b.b.b.b.b.b.t r n n g ",
"k n k e b.b.b.b.b.b.b.b.b.E Q +.9.i.i.i.i.y.9.-.p.x.P . . . . q . . . . q P x.i.-.-.y.i.i.i.i.0.@.Q Q b.b.b.b.b.b.b.b.b.e k n k ",
"k x r e b.b.b.b.b.b.b.b.b.b.b.Q / *.y.i.i.y.-.-.r.v.U S S S J J J J J J K U c.y.-.9.i.i.i.i.#./ W b.b.b.b.b.b.b.b.b.b.b.e r x k ",
"e e w b.b.b.b.b.b.b.b.b.b.b.b.b.E E / -.r.i.9.-.9.v.:.b b A n n n n n n n :.v.9.-.9.i.r.-./ W E b.b.b.b.b.b.b.b.b.b.b.b.b.w e w ",
"b.b.b.b.b.b.b.b.b.b.b.b.b.b.b.b.b.b.E ~ _ 0.9.-.-.v.,.n n n n n n n n n n ,.v.-.-.9.0._ ~ W b.b.b.b.b.b.b.b.b.b.b.b.b.b.b.b.b.b.",
"b.b.b.b.b.b.b.b.b.b.b.b.b.b.b.b.b.b.b.b.E ~ _ =.-.c.2.n n n n n n n n n n 2.c.-.*...Q W b.b.b.b.b.b.b.b.b.b.b.b.b.b.b.b.b.b.b.b.",
"b.b.b.b.b.b.b.b.b.b.b.b.b.b.b.b.b.b.b.b.b.E W / O.l.f.n n n n n n n n n n f.l.O.^ W b.b.b.b.b.b.b.b.b.b.b.b.b.b.b.b.b.b.b.b.b.b.",
"b.b.b.b.b.b.b.b.b.b.b.b.b.b.b.b.b.b.b.b.b.b.b.Q ` u.g.n n n n n n n n n n h.p.` W b.b.b.b.b.b.b.b.b.b.b.b.b.b.b.b.b.b.b.b.b.b.b.",
"b.b.b.b.b.b.b.b.b.b.b.b.b.b.b.b.b.b.b.b.b.b.b.b.5.e.c.n n n n n n n n n n c.e.5.b.b.b.b.b.b.b.b.b.b.b.b.b.b.b.b.b.b.b.b.b.b.b.b.",
"b.b.b.b.b.b.b.b.b.b.b.b.b.b.b.b.b.b.b.b.b.b.b.b.5.w.v.A n n n n n n n n F v.w.5.b.b.b.b.b.b.b.b.b.b.b.b.b.b.b.b.b.b.b.b.b.b.b.b.",
"b.b.b.b.b.b.b.b.b.b.b.b.b.b.b.b.b.b.b.b.b.b.b.b.5.w.c.G n n n n n n n n G z.w.b.b.b.b.b.b.b.b.b.b.b.b.b.b.b.b.b.b.b.b.b.b.b.b.b.",
"b.b.b.b.b.b.b.b.b.b.b.b.b.b.b.b.b.b.b.b.b.b.b.b.b.w.z.U n n n n n n n n U z.w.b.b.b.b.b.b.b.b.b.b.b.b.b.b.b.b.b.b.b.b.b.b.b.b.b.",
"b.b.b.b.b.b.b.b.b.b.b.b.b.b.b.b.b.b.b.b.b.b.b.b.b.w.j.;.n n n n n n n n Y l.5.b.b.b.b.b.b.b.b.b.b.b.b.b.b.b.b.b.b.b.b.b.b.b.b.b.",
"b.b.b.b.b.b.b.b.b.b.b.b.b.b.b.b.b.b.b.b.b.b.b.b.b.5.j.,.n n n n n n n n ,.j.7.b.b.b.b.b.b.b.b.b.b.b.b.b.b.b.b.b.b.b.b.b.b.b.b.b.",
"b.b.b.b.b.b.b.b.b.b.b.b.b.b.b.b.b.b.b.b.b.b.b.b.b.5.j.<.n n n n n n n n 2.j.6.b.b.b.b.b.b.b.b.b.b.b.b.b.b.b.b.b.b.b.b.b.b.b.b.b.",
"b.b.b.b.b.b.b.b.b.b.b.b.b.b.b.b.b.b.b.b.b.b.b.b.b.5.u.2.n n n n n n n m 2.e.5.b.b.b.b.b.b.b.b.b.b.b.b.b.b.b.b.b.b.b.b.b.b.b.b.b.",
"b.b.b.b.b.b.b.b.b.b.b.b.b.b.b.b.b.b.b.b.b.b.b.b.b.5.e.d.A n n n n n n A d.e.5.b.b.b.b.b.b.b.b.b.b.b.b.b.b.b.b.b.b.b.b.b.b.b.b.b.",
"b.b.b.b.b.b.b.b.b.b.b.b.b.b.b.b.b.b.b.b.b.b.b.b.b.5.w.f.G n n n n n n G f.w.b.b.b.b.b.b.b.b.b.b.b.b.b.b.b.b.b.b.b.b.b.b.b.b.b.b.",
"b.b.b.b.b.b.b.b.b.b.b.b.b.b.b.b.b.b.b.b.b.b.b.b.b.b.5.g.H n n n n n n G g.5.b.b.b.b.b.b.b.b.b.b.b.b.b.b.b.b.b.b.b.b.b.b.b.b.b.b.",
"b.b.b.b.b.b.b.b.b.b.b.b.b.b.b.b.b.b.b.b.b.b.b.b.b.b.5.s.L n n n n n n L l.5.b.b.b.b.b.b.b.b.b.b.b.b.b.b.b.b.b.b.b.b.b.b.b.b.b.b.",
"b.b.b.b.b.b.b.b.b.b.b.b.b.b.b.b.b.b.b.b.b.b.b.b.b.b.5.k.P n m n n n n P k.5.b.b.b.b.b.b.b.b.b.b.b.b.b.b.b.b.b.b.b.b.b.b.b.b.b.b.",
"b.b.b.b.b.b.b.b.b.b.b.b.b.b.b.b.b.b.b.b.b.b.b.b.b.b.5.j.f.2.2.2.1.1.1.f.j.5.b.b.b.b.b.b.b.b.b.b.b.b.b.b.b.b.b.b.b.b.b.b.b.b.b.b.",
"b.b.b.b.b.b.b.b.b.b.b.b.b.b.b.b.b.b.b.b.b.b.b.b.b.b.5.e.v.v.v.v.v.v.v.v.e.5.b.b.b.b.b.b.b.b.b.b.b.b.b.b.b.b.b.b.b.b.b.b.b.b.b.b.",
"b.b.b.b.b.b.b.b.b.b.b.b.b.b.b.b.b.b.b.b.b.b.b.b.b.b.5.w.j.j.j.j.j.j.j.j.w.5.b.b.b.b.b.b.b.b.b.b.b.b.b.b.b.b.b.b.b.b.b.b.b.b.b.b.",
"b.b.b.b.b.b.b.b.b.b.b.b.b.b.b.b.b.b.b.b.b.b.b.b.b.b.b.5.5.5.5.5.5.5.5.5.5.b.b.b.b.b.b.b.b.b.b.b.b.b.b.b.b.b.b.b.b.b.b.b.b.b.b.b.",
"b.b.b.b.b.b.b.b.b.b.b.b.b.b.b.b.b.b.b.b.b.b.b.b.b.b.b.b.b.b.b.b.b.b.b.b.b.b.b.b.b.b.b.b.b.b.b.b.b.b.b.b.b.b.b.b.b.b.b.b.b.b.b.b.",
"b.b.b.b.b.b.b.b.b.b.b.b.b.b.b.b.b.b.b.b.b.b.b.b.b.b.b.b.b.b.b.b.b.b.b.b.b.b.b.b.b.b.b.b.b.b.b.b.b.b.b.b.b.b.b.b.b.b.b.b.b.b.b.b.",
"b.b.b.b.b.b.b.b.b.b.b.b.b.b.b.b.b.b.b.b.b.b.b.b.b.b.b.b.b.b.b.b.b.b.b.b.b.b.b.b.b.b.b.b.b.b.b.b.b.b.b.b.b.b.b.b.b.b.b.b.b.b.b.b.",
"b.b.b.b.b.b.b.b.b.b.b.b.b.b.b.b.b.b.b.b.b.b.b.b.b.b.b.b.b.b.b.b.b.b.b.b.b.b.b.b.b.b.b.b.b.b.b.b.b.b.b.b.b.b.b.b.b.b.b.b.b.b.b.b.",
"b.b.b.b.b.b.b.b.b.b.b.b.b.b.b.b.b.b.b.b.b.b.b.b.b.b.b.b.b.b.b.b.b.b.b.b.b.b.b.b.b.b.b.b.b.b.b.b.b.b.b.b.b.b.b.b.b.b.b.b.b.b.b.b.",
"b.b.b.b.b.b.b.b.b.b.b.b.b.b.b.b.b.b.b.b.b.b.b.b.b.b.b.b.b.b.b.b.b.b.b.b.b.b.b.b.b.b.b.b.b.b.b.b.b.b.b.b.b.b.b.b.b.b.b.b.b.b.b.b.",
"b.b.b.b.b.b.b.b.b.b.b.b.b.b.b.b.b.b.b.b.b.b.b.b.b.b.b.b.b.b.b.b.b.b.b.b.b.b.b.b.b.b.b.b.b.b.b.b.b.b.b.b.b.b.b.b.b.b.b.b.b.b.b.b."
};
