/* XPM */
static char *player_up[] = {
/* columns rows colors chars-per-pixel */
"64 64 144 2 ",
"   c #4A3C55",
".  c #5B637E",
"X  c #BE9700",
"o  c #BE9800",
"O  c #C39D00",
"+  c #C7A000",
"@  c #CEA400",
"#  c #D1A700",
"$  c #D4AA00",
"%  c #DAAF01",
"&  c #DFB301",
"*  c #ECBD02",
"=  c #E6BF19",
"-  c #EFC30E",
";  c #F3C301",
":  c #F9C701",
">  c #FFCC00",
",  c #EEC310",
"<  c #DEC23D",
"1  c #E3C025",
"2  c #E6C83C",
"3  c #A99E49",
"4  c #B7AE5E",
"5  c #9CA377",
"6  c #DDC240",
"7  c #E0CD5F",
"8  c #DCCA60",
"9  c #DECE73",
"0  c #43668A",
"q  c #557192",
"w  c #1783B3",
"e  c #1884B4",
"r  c #1C8BBD",
"t  c #2C89B2",
"y  c #358FB7",
"u  c #4D93BD",
"i  c #5897B0",
"p  c #5299BD",
"a  c #6D9FB2",
"s  c #1E8FC1",
"d  c #2092C5",
"f  c #2296C9",
"g  c #249ACF",
"h  c #3D90C0",
"j  c #279FD4",
"k  c #28A1D6",
"l  c #2CA9DF",
"z  c #3CABDB",
"x  c #2DACE3",
"c  c #36ACE0",
"v  c #32B3EB",
"b  c #34B7F0",
"n  c #36BBF5",
"m  c #3ABCF5",
"M  c #4FA4D1",
"N  c #5AAFDA",
"B  c #63B6DE",
"V  c #40B0E2",
"C  c #54BEEB",
"Z  c #59B6E3",
"A  c #45BFF5",
"S  c #65BFEA",
"D  c #57C0ED",
"F  c #4CC1F4",
"G  c #53C3F4",
"H  c #58C5F4",
"J  c #6BC2EA",
"K  c #62C1EC",
"L  c #65C9F4",
"P  c #6DCBF4",
"I  c #61C7F4",
"U  c #75CDF4",
"Y  c #7FD0F4",
"T  c #95A592",
"R  c #B5B883",
"E  c #8DA7AB",
"W  c #8EA8AD",
"Q  c #90A9AE",
"!  c #86ADBB",
"~  c #93ACB2",
"^  c #97B1B6",
"/  c #9AB2B7",
"(  c #9DB5BB",
")  c #AEBCA4",
"_  c #A2B9BF",
"`  c #A4B5B8",
"'  c #D5CE84",
"]  c #D6CF88",
"[  c #D3D392",
"{  c #CECFA1",
"}  c #CED1AC",
"|  c #C9D3B6",
" . c #CBD2B9",
".. c #A4BCC2",
"X. c #AABFC4",
"o. c #B3BFC1",
"O. c #A8C1C6",
"+. c #AEC5CB",
"@. c #B0C4C9",
"#. c #B3C8CF",
"$. c #AAC9D6",
"%. c #AECCD9",
"&. c #B4CCD2",
"*. c #B9CED6",
"=. c #BED2D6",
"-. c #BDD5DB",
";. c #82D1F4",
":. c #89D3F3",
">. c #96D7F3",
",. c #99D8F3",
"<. c #A7DCF3",
"1. c #B3DFF3",
"2. c #B3E0F3",
"3. c #BDE2F2",
"4. c #C6C8C8",
"5. c #CBCBCB",
"6. c #C4D3CC",
"7. c #CDD8CF",
"8. c #C2D7DD",
"9. c #C4D9DE",
"0. c #C8D8DE",
"q. c #CAD8D6",
"w. c #D4D4D4",
"e. c #DCDCDC",
"r. c #CCDDE2",
"t. c #C7DBE1",
"y. c #D0DFE5",
"u. c #DEDFE0",
"i. c #D3E1E7",
"p. c #DBE1E3",
"a. c #DCE6E8",
"s. c #DFEAEE",
"d. c #C3E4F3",
"f. c #C9E6F2",
"g. c #D5E9F2",
"h. c #DBEBF2",
"j. c #E4E4E4",
"k. c #E1E7E9",
"l. c #E3EAEC",
"z. c #ECEDED",
"x. c #EBEFF1",
"c. c #EDF0F0",
"v. c #F2F2F2",
"b. c None",
/* pixels */
"b.b.b.b.b.b.b.b.b.b.b.b.b.b.b.b.b.b.b.b.b.b.b.b.b.b.b.b.b.b.b.b.b.b.b.b.b.b.b.b.b.b.b.b.b.b.b.b.b.b.b.b.b.b.b.b.b.b.b.b.b.b.b.b.",
"b.b.b.b.b.b.b.b.b.b.b.b.b.b.b.b.b.b.b.b.b.b.b.b.b.b.b.b.b.b.b.b.b.b.b.b.b.b.b.b.b.b.b.b.b.b.b.b.b.b.b.b.b.b.b.b.b.b.b.b.b.b.b.b.",
"b.b.b.b.b.b.b.b.b.b.b.b.b.b.b.b.b.b.b.b.b.b.b.b.b.b.b.b.b.b.b.b.b.b.b.b.b.b.b.b.b.b.b.b.b.b.b.b.b.b.b.b.b.b.b.b.b.b.b.b.b.b.b.b.",
"b.b.b.b.b.b.b.b.b.b.b.b.b.b.b.b.b.b.b.b.b.b.b.b.b.b.b.b.b.b.b.b.b.b.b.b.b.b.b.b.b.b.b.b.b.b.b.b.b.b.b.b.b.b.b.b.b.b.b.b.b.b.b.b.",
"b.b.b.b.b.b.b.b.b.b.b.b.b.b.b.b.b.b.b.b.b.b.b.b.b.b.b.b.b.b.b.b.b.b.b.b.b.b.b.b.b.b.b.b.b.b.b.b.b.b.b.b.b.b.b.b.b.b.b.b.b.b.b.b.",
"b.b.b.b.b.b.b.b.b.b.b.b.b.b.b.b.b.b.b.b.b.b.b.b.b.b.b.b.b.b.b.b.b.b.b.b.b.b.b.b.b.b.b.b.b.b.b.b.b.b.b.b.b.b.b.b.b.b.b.b.b.b.b.b.",
"b.b.b.b.b.b.b.b.b.b.b.b.b.b.b.b.b.b.b.b.b.b.b.b.b.b.b.b.b.b.b.b.b.b.b.b.b.b.b.b.b.b.b.b.b.b.b.b.b.b.b.b.b.b.b.b.b.b.b.b.b.b.b.b.",
"b.b.b.b.b.b.b.b.b.b.b.b.b.b.b.b.b.b.b.b.b.b.b.b.b.b.b.5.5.5.5.5.5.5.5.5.5.b.b.b.b.b.b.b.b.b.b.b.b.b.b.b.b.b.b.b.b.b.b.b.b.b.b.b.",
"b.b.b.b.b.b.b.b.b.b.b.b.b.b.b.b.b.b.b.b.b.b.b.b.b.b.5.w.j.j.j.j.j.j.j.j.w.5.b.b.b.b.b.b.b.b.b.b.b.b.b.b.b.b.b.b.b.b.b.b.b.b.b.b.",
"b.b.b.b.b.b.b.b.b.b.b.b.b.b.b.b.b.b.b.b.b.b.b.b.b.b.5.e.v.v.v.v.v.v.v.v.e.5.b.b.b.b.b.b.b.b.b.b.b.b.b.b.b.b.b.b.b.b.b.b.b.b.b.b.",
"b.b.b.b.b.b.b.b.b.b.b.b.b.b.b.b.b.b.b.b.b.b.b.b.b.b.5.j.f.2.1.1.2.2.2.f.j.5.b.b.b.b.b.b.b.b.b.b.b.b.b.b.b.b.b.b.b.b.b.b.b.b.b.b.",
"b.b.b.b.b.b.b.b.b.b.b.b.b.b.b.b.b.b.b.b.b.b.b.b.b.b.5.k.P n n n n n n P k.5.b.b.b.b.b.b.b.b.b.b.b.b.b.b.b.b.b.b.b.b.b.b.b.b.b.b.",
"b.b.b.b.b.b.b.b.b.b.b.b.b.b.b.b.b.b.b.b.b.b.b.b.b.b.5.s.L n n n n n n L h.5.b.b.b.b.b.b.b.b.b.b.b.b.b.b.b.b.b.b.b.b.b.b.b.b.b.b.",
"b.b.b.b.b.b.b.b.b.b.b.b.b.b.b.b.b.b.b.b.b.b.b.b.b.b.5.g.H n n n n n n H g.5.b.b.b.b.b.b.b.b.b.b.b.b.b.b.b.b.b.b.b.b.b.b.b.b.b.b.",
"b.b.b.b.b.b.b.b.b.b.b.b.b.b.b.b.b.b.b.b.b.b.b.b.b.b.w.f.F n n n n n n F g.w.4.b.b.b.b.b.b.b.b.b.b.b.b.b.b.b.b.b.b.b.b.b.b.b.b.b.",
"b.b.b.b.b.b.b.b.b.b.b.b.b.b.b.b.b.b.b.b.b.b.b.b.b.5.e.d.F n n n n n n F d.e.5.b.b.b.b.b.b.b.b.b.b.b.b.b.b.b.b.b.b.b.b.b.b.b.b.b.",
"b.b.b.b.b.b.b.b.b.b.b.b.b.b.b.b.b.b.b.b.b.b.b.b.b.5.u.2.m n n n n n n m 2.u.5.b.b.b.b.b.b.b.b.b.b.b.b.b.b.b.b.b.b.b.b.b.b.b.b.b.",
"b.b.b.b.b.b.b.b.b.b.b.b.b.b.b.b.b.b.b.b.b.b.b.b.b.5.j.1.n n n n n n n n 1.j.5.b.b.b.b.b.b.b.b.b.b.b.b.b.b.b.b.b.b.b.b.b.b.b.b.b.",
"b.b.b.b.b.b.b.b.b.b.b.b.b.b.b.b.b.b.b.b.b.b.b.b.b.5.l.>.n n n n n n n n >.j.5.b.b.b.b.b.b.b.b.b.b.b.b.b.b.b.b.b.b.b.b.b.b.b.b.b.",
"b.b.b.b.b.b.b.b.b.b.b.b.b.b.b.b.b.b.b.b.b.b.b.b.b.5.z.Y n n n n n n n n Y z.5.b.b.b.b.b.b.b.b.b.b.b.b.b.b.b.b.b.b.b.b.b.b.b.b.b.",
"b.b.b.b.b.b.b.b.b.b.b.b.b.b.b.b.b.b.b.b.b.b.b.b.b.w.z.P n n n n n n n n P z.w.b.b.b.b.b.b.b.b.b.b.b.b.b.b.b.b.b.b.b.b.b.b.b.b.b.",
"b.b.b.b.b.b.b.b.b.b.b.b.b.b.b.b.b.b.b.b.b.b.b.b.b.w.c.H n n n n n n n n H c.w.5.b.b.b.b.b.b.b.b.b.b.b.b.b.b.b.b.b.b.b.b.b.b.b.b.",
"b.b.b.b.b.b.b.b.b.b.b.b.b.b.b.b.b.b.b.b.b.b.b.b.5.w.c.F n n n n n n n n F c.w.5.b.b.b.b.b.b.b.b.b.b.b.b.b.b.b.b.b.b.b.b.b.b.b.b.",
"b.b.b.b.b.b.b.b.b.b.b.b.b.b.b.b.b.b.b.b.b.b.b.b.4.p.c.n n n n n n n n n n c.e.5.b.b.b.b.b.b.b.b.b.b.b.b.b.b.b.b.b.b.b.b.b.b.b.b.",
"b.b.b.b.b.b.b.b.b.b.b.b.b.b.b.b.b.b.b.b.b.b.b.W ` p.h.n n n n n n n n n n g.p.` Q b.b.b.b.b.b.b.b.b.b.b.b.b.b.b.b.b.b.b.b.b.b.b.",
"b.b.b.b.b.b.b.b.b.b.b.b.b.b.b.b.b.b.b.b.b.b.W ^ O.l.f.n n n n n n n n n n f.l.O.^ W W b.b.b.b.b.b.b.b.b.b.b.b.b.b.b.b.b.b.b.b.b.",
"b.b.b.b.b.b.b.b.b.b.b.b.b.b.b.b.b.b.b.b.W ~ ..&.-.c.2.n n n n n n n n n n 1.c.-.&.O.Q W b.b.b.b.b.b.b.b.b.b.b.b.b.b.b.b.b.b.b.b.",
"b.b.b.b.b.b.b.b.b.b.b.b.b.b.b.b.b.b.E ~ _ 0.9.-.-.v.,.n n n n n n n n n n ,.v.9.-.9.0._ ~ E b.b.b.b.b.b.b.b.b.b.b.b.b.b.b.b.b.b.",
"e e w b.b.b.b.b.b.b.b.b.b.b.b.b.E E / *.y.y.9.-.9.v.:.m m n n n n n n n n :.v.9.-.9.r.r.*./ Q E b.b.b.b.b.b.b.b.b.b.b.b.b.w e e ",
"k x r w b.b.b.b.b.b.b.b.b.b.b.E / *.y.i.i.i.9.-.r.v.U K J J J J J J J J S U v.r.-.9.i.i.y.y.*./ E b.b.b.b.b.b.b.b.b.b.b.e r x k ",
"k n k w b.b.b.b.b.b.b.b.b.E Q +.0.i.i.i.i.y.8.-.i.c.P q . . . . . . . . . P c.i.-.8.y.i.i.i.i.0.@.Q E b.b.b.b.b.b.b.b.b.w k n k ",
"g n n r t b.b.b.b.b.b.E ~ X.0.i.i.i.i.i.i.y.-.-.a.s.H                     B h.a.-.8.y.i.i.i.i.i.i.0.O.~ E b.b.b.b.b.b.t r n n g ",
"f n m c a E b.b.b.W E ` *.y.i.i.i.i.i.i.i.r.-.-.l.g.Z                     N g.l.-.-.r.i.i.i.i.i.i.i.i.=.( W W b.b.b.W a z n n f ",
"s n m C $...^ E Q ( &.i.i.i.i.i.i.i.i.i.i.r.-.9.x.f.M                     u f.l.9.-.t.i.i.i.i.i.i.i.i.i.i.&.( W W ^ ( $.D n n s ",
"e n n C %.*.#...@.0.i.i.i.i.i.i.i.i.i.i.i.t.-.9.x.d.u                     u d.z.9.-.t.i.i.i.i.i.i.i.i.i.i.i.r.+.O.#.*.%.D n n r ",
"e n n C %.*.*.-.i.i.i.i.i.i.i.i.i.i.i.i.i.9.-.r.x.1.y 0 0 0 0 0 0 0 0 0 0 y 2.c.t.-.9.i.i.i.i.i.i.i.i.i.i.i.i.y.-.&.=.%.D n b w ",
"e v n C %.*.*.=.r.i.i.i.i.i.i.i.i.i.i.i.i.t.-.r.x.1.n n n n n n n n n n m n 2.c.r.-.-.i.i.i.i.i.i.i.i.i.i.i.i.r.-.*.*.%.D n v w ",
"e x m C %.*.*.-.y.i.i.i.i.i.i.i.i.i.i.i.i.9.-.r.c.2.n n n n n n n n n n n n 2.c.r.-.-.i.i.i.i.i.i.i.i.i.i.i.i.i.-.*.*.%.D n x w ",
"e x n C %.*.*.-.y.i.i.i.i.i.i.i.i.i.i.i.i.9.-.t.c.2.n n n n n n n n n n n n 2.c.r.-.-.i.i.i.i.i.i.i.i.i.i.i.i.r.*.*.*.%.D n x w ",
"e j m C %.*.*.-.r.i.i.i.i.i.i.i.i.i.i.i.i.9.-.t.c.2.n n n n n n n n n n n n 2.c.r.-.9.i.i.i.i.i.i.i.i.i.i.i.i.r.-.*.*.%.D n k w ",
"e j n C %.*.*.-.i.i.i.i.i.i.i.i.i.i.i.i.i.9.-.r.c.2.n n n n n n n n n n n n 2.c.r.-.-.i.i.i.i.i.i.i.i.i.i.i.y.r.*.*.*.%.C n j e ",
"w f m C %.*.*.-.r.i.i.i.i.i.i.i.i.i.i.i.i.9.-.r.c.2.n n n n n n n n n n n n 2.c.t.-.t.i.i.i.i.i.i.i.i.i.i.y.y.y.-.*.*.%.C n f e ",
"w d b C %.*.*.-.r.7.=.-.t.r.i.i.i.i.i.i.i.9.-.t.c.2.n n n n n n n n n n n n 2.c.r.-.-.i.i.i.y.f.i.y.i.t.t.5.7.y.-.*.*.%.C b s e ",
"b.s b C %.*.*.*.r.9 * = 2 7 ' { | q.r.y.y.9.-.r.c.2.n n n n n n n n n n n n 2.c.r.-.-.i.y.t.q.| { ] 7 6 , * 9 y.-.*.*.%.C b s b.",
"b.s v z ! #.*.*.y.9 ; * : > > , 1 < 8 ' } =.-.r.c.2.n n n n n n n n n n n n 2.c.r.-.-.} ] 7 6 1 , > > : * * 9 r.*.*.+.! c v s b.",
"b.e x s i Q ( #.9.9 ; * : > > ; * ; : > > [ -.r.c.1.n n n n n n n n n n n n 2.c.t.-.| > > : ; & ; > > : * * 9 t.&.( Q i t x r b.",
"b.e j e b.b.E ~ ( 4 $ & ; > > ; * * : > > [ -.r.c.2.n n n n n n n n n n n n 2.c.t.-.| > > : ; ; ; > > ; & $ 4 ( ~ E b.b.e j e b.",
"b.e e e b.b.b.b.b.3 o o o + # $ % % ; : > [ -.r.c.1.n n n n n n n n n n n n 2.c.r.-.| > : ; % % $ $ O o o o 3 b.b.b.b.b.e e e b.",
"b.b.b.b.b.b.b.b.b.b.b.b.b.b.X o o O + @ $ R +.9.z.2.n n n n n n n n n n n n 2.c.8.+.) $ @ + O o o X b.b.b.b.b.b.b.b.b.b.b.b.b.b.",
"b.b.b.b.b.b.b.b.b.b.b.b.b.b.b.b.b.b.b.o o 5 E o.j.2.n n n n n n n n n n n m 2.j.o.Q T o o b.b.b.b.b.b.b.b.b.b.b.b.b.b.b.b.b.b.b.",
"b.b.b.b.b.b.b.b.b.b.b.b.b.b.b.b.b.b.b.b.b.b.b.4.w.f.F n n n n n n n n n n F f.w.4.b.b.b.b.b.b.b.b.b.b.b.b.b.b.b.b.b.b.b.b.b.b.b.",
"b.b.b.b.b.b.b.b.b.b.b.b.b.b.b.b.b.b.b.b.b.b.b.b.5.p.<.n n n n n n n n n n <.u.5.b.b.b.b.b.b.b.b.b.b.b.b.b.b.b.b.b.b.b.b.b.b.b.b.",
"b.b.b.b.b.b.b.b.b.b.b.b.b.b.b.b.b.b.b.b.b.b.b.b.5.w.k.G n n n n n n n n G k.w.5.b.b.b.b.b.b.b.b.b.b.b.b.b.b.b.b.b.b.b.b.b.b.b.b.",
"b.b.b.b.b.b.b.b.b.b.b.b.b.b.b.b.b.b.b.b.b.b.b.b.b.5.e.3.A n n m n n n A 3.e.5.b.b.b.b.b.b.b.b.b.b.b.b.b.b.b.b.b.b.b.b.b.b.b.b.b.",
"b.b.b.b.b.b.b.b.b.b.b.b.b.b.b.b.b.b.b.b.b.b.b.b.b.b.5.k.;.n n m n m n ;.k.5.b.b.b.b.b.b.b.b.b.b.b.b.b.b.b.b.b.b.b.b.b.b.b.b.b.b.",
"b.b.b.b.b.b.b.b.b.b.b.b.b.b.b.b.b.b.b.b.b.b.b.b.b.b.5.w.p.c x l l l c i.w.5.b.b.b.b.b.b.b.b.b.b.b.b.b.b.b.b.b.b.b.b.b.b.b.b.b.b.",
"b.b.b.b.b.b.b.b.b.b.b.b.b.b.b.b.b.b.b.b.b.b.b.b.b.b.b.5.5.p e e e e y 5.5.b.b.b.b.b.b.b.b.b.b.b.b.b.b.b.b.b.b.b.b.b.b.b.b.b.b.b.",
"b.b.b.b.b.b.b.b.b.b.b.b.b.b.b.b.b.b.b.b.b.b.b.b.b.b.b.b.b.b.b.b.b.b.b.b.b.b.b.b.b.b.b.b.b.b.b.b.b.b.b.b.b.b.b.b.b.b.b.b.b.b.b.b.",
"b.b.b.b.b.b.b.b.b.b.b.b.b.b.b.b.b.b.b.b.b.b.b.b.b.b.b.b.b.b.b.b.b.b.b.b.b.b.b.b.b.b.b.b.b.b.b.b.b.b.b.b.b.b.b.b.b.b.b.b.b.b.b.b.",
"b.b.b.b.b.b.b.b.b.b.b.b.b.b.b.b.b.b.b.b.b.b.b.b.b.b.b.b.b.b.b.b.b.b.b.b.b.b.b.b.b.b.b.b.b.b.b.b.b.b.b.b.b.b.b.b.b.b.b.b.b.b.b.b.",
"b.b.b.b.b.b.b.b.b.b.b.b.b.b.b.b.b.b.b.b.b.b.b.b.b.b.b.b.b.b.b.b.b.b.b.b.b.b.b.b.b.b.b.b.b.b.b.b.b.b.b.b.b.b.b.b.b.b.b.b.b.b.b.b.",
"b.b.b.b.b.b.b.b.b.b.b.b.b.b.b.b.b.b.b.b.b.b.b.b.b.b.b.b.b.b.b.b.b.b.b.b.b.b.b.b.b.b.b.b.b.b.b.b.b.b.b.b.b.b.b.b.b.b.b.b.b.b.b.b.",
"b.b.b.b.b.b.b.b.b.b.b.b.b.b.b.b.b.b.b.b.b.b.b.b.b.b.b.b.b.b.b.b.b.b.b.b.b.b.b.b.b.b.b.b.b.b.b.b.b.b.b.b.b.b.b.b.b.b.b.b.b.b.b.b.",
"b.b.b.b.b.b.b.b.b.b.b.b.b.b.b.b.b.b.b.b.b.b.b.b.b.b.b.b.b.b.b.b.b.b.b.b.b.b.b.b.b.b.b.b.b.b.b.b.b.b.b.b.b.b.b.b.b.b.b.b.b.b.b.b."
};
