/* XPM */
static char *wall[] = {
/* columns rows colors chars-per-pixel */
"64 64 243 2 ",
"   c #08052E",
".  c #0C0535",
"X  c #0D0A35",
"o  c #04053B",
"O  c #0C063C",
"+  c #050A3D",
"@  c #0D0A3C",
"#  c #050635",
"$  c #120535",
"%  c #120B35",
"&  c #12063C",
"*  c #130B3C",
"=  c #190A3D",
"-  c #1A0B3A",
";  c #13113D",
":  c #18113B",
">  c #0D0642",
",  c #050C43",
"<  c #0C0C42",
"1  c #050C4A",
"2  c #0B0B49",
"3  c #050646",
"4  c #130643",
"5  c #130B43",
"6  c #1A0C43",
"7  c #150D4A",
"8  c #1A0D4C",
"9  c #190740",
"0  c #0D1144",
"q  c #0C124B",
"w  c #07124A",
"e  c #131244",
"r  c #1A1344",
"t  c #15134B",
"y  c #1B124C",
"u  c #1C1A4C",
"i  c #15194D",
"p  c #190C54",
"a  c #091A59",
"s  c #161452",
"d  c #1B1454",
"f  c #1C1B54",
"g  c #161C59",
"h  c #21174A",
"j  c #221B4D",
"k  c #28194B",
"l  c #241B54",
"z  c #291A54",
"x  c #23175A",
"c  c #251D5A",
"v  c #291B5B",
"b  c #241356",
"n  c #1C2156",
"m  c #1B235C",
"M  c #17225B",
"N  c #2B235B",
"B  c #282158",
"V  c #32265C",
"C  c #352C5F",
"Z  c #3D305D",
"A  c #2A1A65",
"S  c #1C2866",
"D  c #1F3072",
"F  c #2D2464",
"G  c #232D6C",
"H  c #2A2B66",
"J  c #322B63",
"K  c #332B6B",
"L  c #352769",
"P  c #27316C",
"I  c #3B3165",
"U  c #33316A",
"Y  c #3B336C",
"T  c #39386A",
"R  c #362D72",
"E  c #3B2D73",
"W  c #3A2B7B",
"Q  c #293676",
"!  c #343372",
"~  c #3C3374",
"^  c #3B3B73",
"/  c #3D337B",
"(  c #363977",
")  c #252F70",
"_  c #101C60",
"`  c #42366C",
"'  c #43396E",
"]  c #423264",
"[  c #403773",
"{  c #433A74",
"}  c #41357C",
"|  c #423A7B",
" . c #402F6A",
".. c #3B437D",
"X. c #36447C",
"o. c #47437B",
"O. c #3B2E82",
"+. c #3D3383",
"@. c #3D3984",
"#. c #3E338A",
"$. c #3B3887",
"%. c #3F3491",
"&. c #423483",
"*. c #443A83",
"=. c #42348A",
"-. c #443B8B",
";. c #493D8D",
":. c #493F84",
">. c #463B91",
",. c #4A3E92",
"<. c #412F87",
"1. c #364582",
"2. c #3C4581",
"3. c #374687",
"4. c #4B4483",
"5. c #4D4B83",
"6. c #4A428D",
"7. c #454586",
"8. c #524A88",
"9. c #4A518A",
"0. c #55538B",
"q. c #4B4393",
"w. c #4D4996",
"e. c #4D4699",
"r. c #544B93",
"t. c #534C9B",
"y. c #534798",
"u. c #4A5394",
"i. c #5A5493",
"p. c #55539C",
"a. c #5B549C",
"s. c #5E5B9B",
"d. c #585795",
"f. c #635C9C",
"g. c #62589B",
"h. c #59629D",
"j. c #4F609F",
"k. c #63619D",
"l. c #66629C",
"z. c #5A4DA2",
"x. c #5B53A3",
"c. c #5D5BA4",
"v. c #565CAA",
"b. c #5D5DAA",
"n. c #5A54A5",
"m. c #5D5EB2",
"M. c #4B5BA6",
"N. c #6256A4",
"B. c #635CA5",
"V. c #6156A9",
"C. c #635DAB",
"Z. c #685DAD",
"A. c #685DA4",
"S. c #655EB1",
"D. c #695EB2",
"F. c #5465A3",
"G. c #5D61AC",
"H. c #5767A9",
"J. c #5D63B2",
"K. c #5A6BB3",
"L. c #5D6BBB",
"P. c #5864B5",
"I. c #5D70BD",
"U. c #6562A4",
"Y. c #6A62A4",
"T. c #6A6AA5",
"R. c #6461AC",
"E. c #6A62AC",
"W. c #666BAE",
"Q. c #6B71AC",
"!. c #7174AE",
"~. c #6363B2",
"^. c #6A62B3",
"/. c #636AB5",
"(. c #636CBA",
"). c #666BB8",
"_. c #6471BD",
"`. c #6C72BB",
"'. c #6D78B6",
"]. c #7375B4",
"[. c #727DBD",
"{. c #777FB7",
"}. c #5B6DC2",
"|. c #5E70C2",
" X c #6C75C3",
".X c #6C7ACA",
"XX c #677AC8",
"oX c #7377C2",
"OX c #7179C5",
"+X c #737CCA",
"@X c #6A75C9",
"#X c #7681BD",
"$X c #6F80BD",
"%X c #7383C2",
"&X c #7384CB",
"*X c #7A83CC",
"=X c #7B8ACA",
"-X c #7887C6",
";X c #6E83D3",
":X c #7385D2",
">X c #7C8ED5",
",X c #7D8BDB",
"<X c #7688D8",
"1X c #7E93D4",
"2X c #7D94DD",
"3X c #7286CA",
"4X c #7B94E4",
"5X c #7D9AE5",
"6X c #7C96EB",
"7X c #7D9AEB",
"8X c #7798E8",
"9X c #7D9EF0",
"0X c #7489E0",
"qX c #7EA1F0",
"wX c #848BCD",
"eX c #888BC9",
"rX c #8793CE",
"tX c #828DDA",
"yX c #868BD3",
"uX c #8493D4",
"iX c #8394DC",
"pX c #8B93DC",
"aX c #859ADD",
"sX c #8A9BDD",
"dX c #8A97D4",
"fX c #949ADD",
"gX c #9598D6",
"hX c #94A1DD",
"jX c #8494E3",
"kX c #8B96E2",
"lX c #839BE4",
"zX c #8B9CE3",
"xX c #829BEB",
"cX c #8C9BEA",
"vX c #8097EA",
"bX c #929AE3",
"nX c #939CE9",
"mX c #829DF2",
"MX c #889EF1",
"NX c #8CA2EB",
"BX c #8AA1E4",
"VX c #93A2E3",
"CX c #82A1F3",
/* pixels */
"t e @ @ $ & $ - = 6 = 6 6 * 5 5 @ . * e 0 a M w a a a M a a a a a a a i ; X ; % X . y | f.T.B.U.C.C.C.~.S.S.~.C.C.R.B.c.c.n.t.q.",
"d.U e O . e = = 6 k V I c 5 O @ < ; @ @ X.h.F.F.F.F.F.F.H.K.K.v.K.K.h...w X X % % 5 8 ~ d.A.B.A.E.R.R.C.S.C.S.b.C.C.c.w.q.w.q.%.",
"eX^ < O . 6 = $ r ] ' ' J t < * 5 @ O < 9.dXaXBXaXuXaX1XaXaXiXiX2XBXfXQ.i X X   ; * 5 Y f.l.T.Y.C.E.~.Z.D.S.D.S.~.C.x.*.+.$.$.$.",
"eX( < @ O = & . : ' ' ' C y 5 < 0 , # 0 9.1XaXBXaXaXBXBXaXiXiXkXaXNXVX'.i + # X @ O O T l.Y.Y.A.B.B.C.D.D.D.D.S.D.D.z.-.O.O.+.O.",
"eXo.f f 8 5 * = : V Z C B e 0 @ e n i M j.2X2XlX1X2XaXzXkXzXaXiX>XiXuXW.S M n u t @ @ J i.d.0.a.B.N.V.C.V.V.V.V.V.V.z.,.#.+.+.O.",
"].i.4.8.| u 5 * : r u r r e @ 0 T Q.'.W.3XxXBXxXBXBXiXtX X(.L.(./._._.'.'.'.!.o.e e O e N B c ~ 4.7.:.;.;.;.;.-.,.,.,.<.+.+.} <.",
"B.c.U.T.g.B < & X X X @ @ e + , ..rXhXaX5XBX7X7X5XcXlXtX_.J.J.H.G.J.G./.gXfXgXh.< e @ @ < 5 > F | / / } &.&.&.<.<.<.&.} &.&.&.&.",
"c.B.W.E.s.B > @ @ X X X X 0 0 + X.dXVXlX5X7X6X7XxXlXjXiX`.(.J.v.G.J.v./.pXbXfXH.2 < 0 @ O @ @ F [ / ~ / / } } W } &.<.} &.&.&.} ",
"b.R.^.E.a.F d j j r %   X 0 0 w X.1XaXBX5X8X6XmXvX2X,X*XK.G.G.G.G.b.J.).wXyXyXb.F f u i @ 5 5 B K K L L E E E E  .}  .W E E E E ",
"^.C.b.R.U.d.d.0.o.j ; % ; ; + + 1.uX1X2XqXqX6XvX.XL.L./.b.G.^.^.v.b.~.).G.m.).D.u.d.5.U t O < 8 h d 8 8 6 8 8 8 8 b p 8 8 8 8 8 ",
"D.C.C.C.U.U.T.l.o.u % X ; 0 + + 1.1XBX5XxXmX7XvXXXP.G.G.R.C.C.R.C.C.~.G.b.b.J.R.U.T.l.T t 5 5 O & 4 4 4 & & 4 4 - 4 9 4 4 5 2 3 ",
"D.S.C.R.C.b.U.T.0.j X X X ; + w 1.1X5X7X7X9XmX4X@XJ.G.R.b.U.U.c.R.~.C.b.~.~.C.b.C.T.l.T 5 5 5 * & * & & 9 & $ r & $ & $ * < < < ",
"D.D.S.S.c.p.a.d.5.u & X ; ; + w 1.1X5X8XvXvXvXjX@XJ.v.R.U.U.U.x.C.~.R.S.~.~.~.C.U.f.f.T 5 > 5 8 j k y & = : . h * X X @ @ o i ! ",
"S.V.V.C.v.6.2.*.Y e @ X % ; + + 1.1XBX5XvXmXvXjXOXG.c.R.c.B.B.C.R.R.R.~.~.~.R.R.R.B.U.^ 7 5 7 N K I C r % *   * X X @ ; # + Q '.",
"V.Z.D.^.b.$./ ( K 7 & % % ; + + 1.1XlXvXmXMXcXcX XG.G.U.G.c.c.U.C.b.v.b.b.b.n.b.R.U.f.~ > 4 5 N ' { ` h * ; * X # # ; 0 + + X.=X",
"V.Z.D.^.b.$.O./ K y * X ; ; + 0 1.1XBXvX6XjX4XkX XJ.R.G.U.R.G.G./.G.G.~.J.G.G.G.U.U.Y.~ 2 4 8 F ` T ] h & @ e 0 @ 0 + w , w X.=X",
"A.N.t.t.t.$.$.( R d 4 & - = O < X.uXBX5X1X;X;X&X+XOXOX`.C.~.J.J.+X+X+X@X+XoXoX XR.U.Y.~ 2 7 5 x N N B r 5 @ e ( o.....X.1.3.F.1X",
"N.y.@.+.#.+.$.$.R 8 4 = = = @ < 2.1X5X5X;XI.P.K.*XtXtXyXJ.G.G.L.tXkXjXtXpXkXpX*XW.B.g.E 4 4 > 5 4 5 5 5 7 2 s !.rXdXwXyXuXtXjXcX",
"g.r.} W +.+.$.$.W 8 4 9 = = O < X.1XaX5XXXP.M.m.*XnXnXkX(.F.v.K.tXcXcXkXkXnXbX+XR.U.A.^ p 7 5 5 4 < > o 2 5 f #XhXaXuXiXnXcXjXcX",
"N.,.<.+.$.#.@.+.W 8 4 9 = 9 O < 7.uXaX2X;XP.P.}.*XpXpXpX_.G.P. XtXjXjXkXcXjXjX+X/.U.g.| p 4 4 > 5 7 > 7 2 2 m ].fXbXkXiXkXjXjXjX",
"e.>.%.=.#.#.O.+.E 8 4 & = ; + + 7.uXzXkXXXP.J.K.`. XOXOXK.G.G.(.tXjXjXtX+X+X+X@XR.C.C.r.| ~ U f 2 5 q ^ u.u.p.`.OX+X&X.X.XOX+X+X",
"=.%.%.=.%.#.+.&.E 8 & 4 ; ; + w 2.uXzXkXXXJ.G.G.H.G.G.H.G.F.G./.tXbXkXtXL.m.m.m.J.b.R.R.R.U.s.U 2 , i T.gXgXyX`.G.c.G./.J.J.J.~.",
"%.%.<.=.=.<.&.&.[ 8 * * * @ + ; 2.wXkXkXOXP.G.G.G.G.G.G.G.G.H.).pXnXnXtX(.m.m.m.m.b.C.R.U.U.h.U 5 < s !.fXgXyX^.G.s.c.J.J.~.~.b.",
"<.O.W W } W }  .K 6 - ; % @ + i 2.yXzXcX+XG.G.J.G.G.G.G.G.G.G.W.yXpXpX*X(.m.P.~.~.D.~.E.U.U.k.H < q f T.eXgXeX]./.G.G.R.b.~.J.b.",
"E L v v v v v z z = - - % ; X w 2.wXkXkXOXb.J.G.G.G.G.G.b.G.G.G.^.oXOXoXJ.J.~.m.~.C.C.C.A.k.g.C , < g d.].].].U.R.G.G.R.b.C.n.w.",
" .b 9 4 9 9 9 9 9 $ $ - % ; X + ..wXkXkX+XG.b.R.R.G.R.G.G.G.c.c.D.D.R.J.b.~.~.m.b.C.B.U.U.k.h.C O + e 5.U.W.U.c.R.R.b.C.b.b.n.$.",
"] k & $ $ = & $ $ % % % % X X + ..wXbXpXOXb.R.R.G.R.R.G.G.R.b.B.C.b.b.G.b.~.C.b.C.B.A.B.U.Y.l.U @ O e o.f.k.U.G.R.E.G.~.b.b.x.$.",
"Z k - & - 6 - $ % - % % X X X 0 ..wXpXtXoXG.~.C.C.G.R.R.R.U.R.W.D.C.E.R.C.~.R.~.^.R.E.f.a.g.i.I 0 O t 4.k.U.E.B.b.C.b.C.b.b.x.q.",
"k - % & % - - $ $ % : % % % X + U Q.`.`.~.R.R.R.R.C.U.C.R.U.R.R.b.R.R.C.B.b.b.B.W.Z.A.r.4.4.{ c < o t 4.k.U.N.6.>.,.e.b.D.D.C.x.",
"@ . @ * # O < & $ % % % X % ; @ H G.G.R.G.R.R.R.R.b.b.b.b.C.R.R.c.B.R.R.R.R.c.c.R.Z.A.y.} | T c 5 O d 4.Y.U.c.-.$.@.>.x.D.D.Z.Z.",
"+ + 0 0 < > > > % * % X X % ; 0 H s.R.R.C.C.C.R.R.C.B.C.B.R.R.E.B.U.R.U.R.E.B.c.Z.Z.Z.y./ *.~ l 5 > y 4.Y.E.N.;.+.+.>.x.Z.Z.V.D.",
"m m M S G g g f h j B u ; ; + 0 K s.R.R.C.C.C.^.C.N.x.C.C.C.C.B.R.R.B.N.Z.W.U.N.V.Z.Z.q./ } ~ x > 5 7 *.g.N.a.-.@.=.q.z.V.V.N.V.",
"$X%XOXOX[.G.p.w.9.d.0.5.T y O < J a.C.Z.^.W.R.B.w.@.*.-.t.C.C.N.E.E.B.B.C.C.B.N.Z.D.V.,.=.;./ c > 5 p R *.4.*.+./ +.=.-.&.-.*.&.",
"aXkXnXcX,X_.J.v.G.T.T.l.o.e O 8 Y a.A.Z.A.N.Z.c.6./ +.@.x.E.C.C.E.R.C.C.R.Y.U.B.D.^.D.y.&.&./ x > 5 7 L | | } / / &.&.+./ *.*.} ",
"lXkXcXjX,X Xm.m.G.U.U.l.8.e > 7 E g.A.A.N.N.E.N.6.@.+.$.x.^.C.C.Z.^.C.B.C.E.R.C.S.D.D.e.=.} E d > 5 7 K | | | / / / / / *./ | } ",
">X,XtX,X+X|.(.m.G.b.U.U.8.5 O 4 K g.A.E.E.R.R.s.r.6.6.6.t.x.a.p.C.^.E.C.C.R.E.B.z.V.z.e.&.} / x > > 7 N J K K K K K F K ~ K F K ",
").(.(.|.}.S.m.m.C.N.U.T.8.y < > F f.A.A.N.B.B.B.U.B.c.x.6.$.$.q.b.D.E.V.V.R.Z.x.;.>.>.=.@.+.| c 4 > @ 5 5 5 5 5 y y 8 5 5 5 7 s ",
"b.v.b.S.m.S.m.S.~.C.U.g.o.y 4 5 Y Y.E.A.A.E.U.B.C.C.C.C.#.$.$.-.x.C.^.~.E.E.C.x.$.$.#.O.+./ | N 5 > & @ * 5 * 5 5 6 * O 5 5 5 2 ",
"^.C.b.V.V.S.D.D.E.Z.Y.Y.4.8 > 5 U d.A.A.U.U.E.B.U.R.C.N.7.+.#.>.x.D.~.^.C.b.C.x.#.#.#.#.+.E ~ c > O * O & ; * * * % X % ; & < i ",
"E.g.t.z.z.Z.D.D.E.A.A.l.8.7 O 5 N ~ *.:.r.c.T.B.B.R.R.b.w.q.q.e.b.S.D.b.z.w.t.e.#.#.+.&.+.R ~ l * * = X % % % X % X % X * @ f ^ ",
"a.6.@.&.>.x.Z.Z.E.A.g.A.8.6 O 4 7 7 d d / s.E.N.c.B.E.C.C.R.b.n.^.^.m.x.6.+.#.-./ +.+.$.*./ [ v 5 * * % % % % X * ; @ @ # 0 ( ].",
"B.6.( W -.V.Z.Z.Z.Y.Y.Y.8.h O 4 5 > > 5 ~ R.E.B.A.C.Z.R.E.C.C.C.S.^.C.x.&.+.+.+./ +./ / &.| ~ z * & & % % : ;   X @ ; < + o ( uX",
"p.q.@.$.-.x.V.N.Z.Y.A.f.o.h & 9 5 * 5 7 ~ f.A.B.B.Z.E.Z.C.Z.C.D.Z.V.C.z.-.&.O.&.&.} / / } E  .v 5 * = & X X % X ; ; , w w a 3.>X",
"x.p.u.e.w.e.t.y.y.y.8.8.{ 8 & 5 5 4 5 5 F 8.r.r.N.A.A.A.C.C.Z.C.t.e.y.y.=.+.<.<.&.&.| R A v v 8 & & % % X % ; @ 0 0 i X.u.u.J.lX",
"b.~.S.m.x.q.-.#.+.@./ | K 4 O < 5 O O > v [ | :.i.A.A.Z.R.V.C.C.q.+.=.>.=.O.O.<.&.&.<.A 8 4 8 4 O & & - % ; @ + + , S '.aXuXiXNX",
"C.^.D.D.b.q.#.$.W / ~ ^ K 4 O 5 5 4 < 5 N Y [ | 0.Y.A.E.E.E.V.V.>.O.O.=.<.O.<.<.&.}  .V 8 8 8 9 & & $ $ ; X # + o w Q 3XzXNXlXlX",
"S.b.m.n.n.q.-.$.+./ } ~ J 7 5 * 5 * 5 5 N [ [ { 8.g.g.f.A.A.N.x.;.#.O.=.=.<.=.<.W } } V 4 O & O O & 5 = : @ + i a w Q 3XlXNX5X2X",
"D.n.e.e.e.=.+.O.+./ | [ J 5 O O @ @ O @ y l k c J L L R *.8.r.6.&.+.&.O.<.=.<.O.A x v b 9 4 8 z V V V y @ + i 9.j.F.K.2X2X5XxX5X",
"m.e.=.=.=.#.O.O.&.| } [ V 6 O O @ @ O & @ O O 4 t 5 2 8 K / @./ / *.&.+.<.=.<.L p 4 4 6 9 9 8 V ` ' ` u # + m '.sXsXiXCX4X5XxXlX",
"z.>.O.O.O.O.O.&.*./ [ [ J r * * * * @ < 5 5 & 5 5 O > 2 U / / / / | &./ } &.<.L p 4 & & 4 & - N ] I I y O + m -XVXBXvXmXxX7X8XBX",
"N.6.=.=.&.&.<.} | E E Y N r 5 * * 5 @ < y j t d 7 > 5 7 K R ! ! R / / E / } / F 8 4 $ 4 8 9 = V ' I C j 0 < M [.aXlX5X6X7X6X5XBX",
";.=.} +.<.} } } [ x h b h * O $ & O @ e ^ T.T.T.K 2 2 1 s g s s f g d y d d d s 4 > 4 b V I V z h h j e < , m $XsXlX6X7X6X7X>XI.",
"} } W &.&.} } } E 8 O $ 5 & X ; * @ O > 8.gXgXrX( 1 1 1 1 2 3 1 1 , , > + @ O O > O 7 N Y { ' j . $ * @ O , m [.kXvXmXmX9XvX:XG.",
"[ W / +.&.} } / L y 5 O & * ; e 5 < + < 8.gXfXyX1.1 1 1 1 1 1 w 3 , 2 , + # 0 0 o > 5 B T ' ' z $ O * @ @ 0 m #XaXcXMXmXmXvX*XK.",
"R R R / } R R R F d f y @ O 5 O < f f H s.>XsXuXu.S _ a S _ S S a M g g i n N n o o , f H J I c e 5 r * 0 0 m #XsXkXmX6X<X<XOXW.",
"p d d d d p p s t > o # < 0 # , T ].%X[.=XaXkXlX*X@XXX&XXX[.%X'.[.#X#X#X#X$X$X9., 0 q s f t y 5 O . & X O @ n #XpXjX0XXX}._.(.G.",
"2 3 2 2 3 3 2 2 2 2 @ 0 , , , w 2.yXbXzXzXzXlXiXiXzXNXNXiXlXaXlXaXsXaXuXhXhXsXh.w w 1 1 , , + < @ @ ; * + + B {.fXkX,XL.m.m.m.b.",
"2 1 1 2 3 3 1 1 1 1 w w , , 3 w 3.>XVXlXlXlX5X5XxXCXxX7X4XlXlXlX2XBXaXiXsXBXsXF.a 1 1 1 3 , O @ @ O = * * O B {.fXsX,XL.P.m.n.b.",
") ) ) ) ) ) ) P G P G S D S S D M.1XcX4X4X5XxX7X7X5X8X5X8X5XmX6X5XlXxXlXlXlX1XK.Q D G G G U H u O . X * ; * n !.eXwX+XP.L.m.b.C.",
"*X*X=X=X*X*X=X-XOX=X=X-X$X3X1X<X2XxXmX7X7X9XCX8X8X8X8XqXqX7X7X9X8XqXxX7XxXxXxX2X:X:X-X-X-XeX!.X.t 5 * * % * u d.Q.`.).v.m.m.C.D.",
"sXsXsXBXaXlXBXzXaXBXsXaXBXBXBX5X6X6XvX7X8X7X9X7XqXqX9X9X9X9X9X9X7XmXxXvXvXcXmXvXxXzXaXaXdXhXeXX.O * X % = e j 0.h.U.G.v.~.~.S.D.",
"lXlXlXlXBXBXlXlXlXBX5XlX5XBXBXqX7X6X7X7X9X8X7X9XqX7X7X9X8X8X6X6XxXxXvX7XxXvX4XvXNXxXlXlXaXhXrXX.+ + * % % % u 5.f.G.R.R.S.b.b.S.",
"5X5X5X5X5X7X5X7X5XxXlXxX7X6X8X7XmX7X6X7X7X8X6X9X6X6X7XmX0X;X<X<X<X<X;X;X0X<X+X0XvXvXqX5X5XBX1XX.0 @ : = % . e T o.o.6.U.C.Z.C.C.",
"qX8X7X8X7X7X7X7XxXxX7X7XxX7XBX7XvX7X8X7X7X7X7X7XmXvX6X6XXX|.|.L.K.K.K.K.|.}.}.XX4X7XqX5X5XBX1XX.w @ ; & $ X X i i q H a.^.^.C.m."
};
